<svg width="95" height="17" viewBox="0 0 95 17" fill="none" xmlns="http://www.w3.org/2000/svg">
<path fill-rule="evenodd" clip-rule="evenodd" d="M7.80747 10.2128C7.74391 10.2128 7.67935 10.2041 7.61524 10.186C7.23891 10.0793 6.88596 9.90843 6.56624 9.67823C5.05963 8.59319 4.71659 6.4848 5.80147 4.97827C6.32707 4.24844 7.1054 3.76698 7.99307 3.62248C8.88073 3.47806 9.77159 3.68799 10.5014 4.21351C11.0018 4.57386 11.3931 5.06327 11.6329 5.62856C11.7846 5.98626 11.6176 6.39925 11.2599 6.55093C10.9023 6.7026 10.4893 6.53572 10.3377 6.17802C10.1984 5.84972 9.97068 5.56516 9.67918 5.35531C9.25434 5.04939 8.73584 4.92719 8.21906 5.01126C7.70227 5.09532 7.2492 5.37559 6.94328 5.80043C6.3117 6.67749 6.51142 7.90485 7.3884 8.53642C7.57508 8.67086 7.78041 8.77036 7.99891 8.83228C8.37276 8.93818 8.58986 9.32715 8.48396 9.701C8.39615 10.0106 8.11417 10.2128 7.80747 10.2128Z" fill="#00C4CC"/>
<path fill-rule="evenodd" clip-rule="evenodd" d="M8.37352 13.4313C7.69204 13.4313 7.00447 13.2256 6.41041 12.7978C5.79311 12.3532 5.34042 11.7056 5.1358 10.9743C5.03115 10.6001 5.24965 10.212 5.62381 10.1073C5.99796 10.0026 6.38616 10.2211 6.49081 10.5952C6.61152 11.0266 6.86801 11.3935 7.23265 11.656C8.10963 12.2877 9.33699 12.0879 9.96864 11.2109C10.6002 10.3338 10.4005 9.10648 9.52344 8.47491C9.41512 8.39693 9.29932 8.33002 9.17907 8.27606C8.82465 8.11682 8.66634 7.7004 8.82558 7.34605C8.98482 6.99162 9.40124 6.8334 9.75559 6.99263C9.96216 7.08535 10.1606 7.19999 10.3457 7.33318C11.8523 8.41814 12.1953 10.5265 11.1104 12.0331C10.4532 12.9457 9.4205 13.4313 8.37352 13.4313Z" fill="#00C4CC"/>
<mask id="mask0_59_1469" style="mask-type:alpha" maskUnits="userSpaceOnUse" x="0" y="0" width="17" height="17">
<path fill-rule="evenodd" clip-rule="evenodd" d="M0 0.078064H16.8554V16.9334H0V0.078064Z" fill="white"/>
</mask>
<g mask="url(#mask0_59_1469)">
<path fill-rule="evenodd" clip-rule="evenodd" d="M11.4598 0.078064H5.39515C4.66735 0.078064 3.96068 0.220926 3.29456 0.502596C2.65199 0.77444 2.07508 1.16326 1.58005 1.65836C1.08503 2.15331 0.69621 2.73022 0.424366 3.37287C0.142696 4.03891 -0.000244141 4.74558 -0.000244141 5.47346V11.538C-0.000244141 12.2658 0.142696 12.9726 0.424366 13.6386C0.69621 14.2813 1.08503 14.8581 1.58005 15.3531C2.07508 15.8482 2.65199 16.237 3.29456 16.5088C3.96068 16.7905 4.66735 16.9334 5.39515 16.9334H11.4598C12.1875 16.9334 12.8943 16.7905 13.5604 16.5088C14.2029 16.237 14.7799 15.8482 15.2749 15.3531C15.7699 14.8581 16.1587 14.2813 16.4306 13.6386C16.7122 12.9726 16.8552 12.2658 16.8552 11.538V5.47346C16.8552 4.74558 16.7122 4.03891 16.4306 3.37287C16.1587 2.73022 15.7699 2.15331 15.2749 1.65836C14.7799 1.16326 14.2029 0.77444 13.5604 0.502596C12.8943 0.220926 12.1875 0.078064 11.4598 0.078064ZM11.4598 1.48512C13.6625 1.48512 15.4482 3.27066 15.4482 5.47349V11.538C15.4482 13.7408 13.6625 15.5264 11.4598 15.5264H5.39518C3.19243 15.5264 1.40681 13.7408 1.40681 11.538V5.47349C1.40681 3.27066 3.19243 1.48512 5.39518 1.48512H11.4598Z" fill="#00C4CC"/>
</g>
<path fill-rule="evenodd" clip-rule="evenodd" d="M44.8213 6.2281C45.3576 6.81569 45.626 7.77448 45.626 9.10492V14.959C45.626 15.1219 45.4939 15.254 45.3309 15.254H43.1071C42.9441 15.254 42.812 15.1219 42.812 14.959V9.52119C42.812 9.12559 42.761 8.81865 42.6594 8.59983C42.5573 8.3811 42.4122 8.23114 42.2233 8.15011C42.0344 8.06925 41.7903 8.02901 41.4906 8.02901C41.1429 8.02901 40.8463 8.11299 40.6006 8.28065C40.3547 8.44863 40.1601 8.68226 40.0162 8.98187V9.17971V14.959C40.0162 15.1219 39.8841 15.254 39.7212 15.254H37.5065C37.3435 15.254 37.2114 15.1219 37.2114 14.959V9.53912C37.2114 9.13783 37.1604 8.8259 37.0586 8.60436C36.9565 8.38273 36.8097 8.23114 36.618 8.15011C36.426 8.06925 36.1805 8.02901 35.8808 8.02901C35.5512 8.02901 35.2636 8.10239 35.0178 8.24915C34.772 8.39615 34.5713 8.60436 34.4154 8.87394V14.959C34.4154 15.1219 34.2833 15.254 34.1203 15.254H31.9056C31.7427 15.254 31.6106 15.1219 31.6106 14.959V5.82174C31.6106 5.65883 31.7427 5.52673 31.9056 5.52673H33.9725C34.1262 5.52673 34.2542 5.64472 34.2667 5.79787L34.3344 6.63267C34.6581 6.21921 35.0537 5.90159 35.5211 5.67958C35.9887 5.45803 36.5192 5.34698 37.1124 5.34698C37.7117 5.34698 38.2271 5.46856 38.6587 5.71108C39.0901 5.95384 39.423 6.32402 39.6566 6.82131C39.9741 6.34804 40.3758 5.98394 40.8613 5.72925C41.3468 5.47448 41.9071 5.34698 42.5425 5.34698C43.5253 5.34698 44.285 5.64082 44.8213 6.2281Z" fill="#00C4CC"/>
<path fill-rule="evenodd" clip-rule="evenodd" d="M51.9921 13.0831C52.2828 12.9182 52.4911 12.7189 52.617 12.4851V10.8941H51.61C51.0107 10.8941 50.5672 11.0303 50.2796 11.3032C49.9919 11.576 49.8479 11.9219 49.8479 12.3414C49.8479 12.6352 49.9514 12.8735 50.1582 13.056C50.3649 13.239 50.639 13.3303 50.9808 13.3303C51.3642 13.3303 51.7013 13.2479 51.9921 13.0831ZM55.1354 15.2541H53.0468C52.8839 15.2541 52.7518 15.122 52.7518 14.9591V14.391C52.1645 15.0864 51.3612 15.4339 50.3424 15.4339C49.737 15.4339 49.1828 15.3094 48.6794 15.061C48.1758 14.8121 47.7774 14.4645 47.4836 14.018C47.19 13.5716 47.0432 13.0694 47.0432 12.5121C47.0432 11.4873 47.4222 10.6977 48.1803 10.1434C48.9384 9.589 50.0668 9.31177 51.5651 9.31177H52.617V8.78134C52.617 8.34386 52.5105 8.00363 52.2978 7.76095C52.0849 7.51843 51.7568 7.39678 51.3134 7.39678C50.9178 7.39678 50.6106 7.49113 50.3918 7.68001C50.2277 7.82162 50.1253 8.00956 50.0842 8.24389C50.0595 8.38566 49.9447 8.49359 49.8008 8.49359H47.581C47.4064 8.49359 47.2663 8.34207 47.2861 8.16856C47.3386 7.70792 47.5049 7.283 47.7849 6.89341C48.1295 6.41397 48.6209 6.03631 49.2593 5.76064C49.8974 5.48513 50.6332 5.34711 51.4663 5.34711C52.2393 5.34711 52.924 5.47765 53.5205 5.73818C54.1168 5.99888 54.5842 6.38723 54.9228 6.90237C55.2613 7.41799 55.4307 8.05026 55.4307 8.7992V12.8269C55.4307 13.2594 55.4304 14.4133 55.4303 14.9595C55.4303 15.1223 55.2982 15.2541 55.1354 15.2541Z" fill="#00C4CC"/>
<path fill-rule="evenodd" clip-rule="evenodd" d="M69.4968 13.4071V14.9642C69.4968 15.0938 69.4137 15.2117 69.2891 15.2472C68.853 15.3715 68.3767 15.4338 67.8607 15.4338C66.9197 15.4338 66.1988 15.1973 65.6985 14.7237C65.1981 14.2502 64.9479 13.5041 64.9479 12.4851V7.72949H63.9125C63.7495 7.72949 63.6174 7.59739 63.6174 7.43441V5.64224C63.6174 5.47926 63.7495 5.34715 63.9125 5.34715H64.9479V3.41274C64.9479 3.24976 65.08 3.11774 65.243 3.11774H67.4578C67.6207 3.11774 67.7529 3.24976 67.7529 3.41274V5.34715H69.0848C69.2478 5.34715 69.3799 5.47926 69.3799 5.64224V7.43441C69.3799 7.59739 69.2478 7.72949 69.0848 7.72949H67.7529V12.1436C67.7529 12.5272 67.8277 12.7881 67.9776 12.9257C68.1274 13.0638 68.3821 13.1325 68.7417 13.1325C68.8935 13.1325 69.0365 13.1264 69.171 13.1143C69.3457 13.0985 69.4968 13.2316 69.4968 13.4071Z" fill="#00C4CC"/>
<path fill-rule="evenodd" clip-rule="evenodd" d="M62.7231 5.68697L62.6944 7.43758C62.6921 7.60992 62.5431 7.74303 62.3714 7.72736C62.0762 7.70038 61.8583 7.69078 61.7191 7.70311C61.2186 7.74724 60.8489 7.9135 60.5191 8.15462C60.157 8.41929 59.8402 8.99448 59.8402 9.45403V14.959C59.8402 15.1219 59.7081 15.2541 59.5452 15.2541H57.3305C57.1675 15.2541 57.0354 15.1219 57.0354 14.959V5.8218C57.0354 5.65889 57.1675 5.52672 57.3305 5.52672H59.3957C59.5502 5.52672 59.6784 5.64579 59.6899 5.79965L59.754 6.52636C59.9998 6.08265 60.2956 5.84332 60.6717 5.6284C61.0861 5.39157 61.4465 5.34705 61.908 5.34705C62.123 5.34705 62.312 5.36178 62.4754 5.39126C62.6194 5.41731 62.725 5.54052 62.7231 5.68697Z" fill="#00C4CC"/>
<path fill-rule="evenodd" clip-rule="evenodd" d="M27.5318 7.66328L25.621 6.90421C24.4906 6.46119 23.6739 6.14116 23.6739 5.35721C23.6739 4.57716 24.3253 4.11153 25.4167 4.11153C26.3361 4.11153 27.1241 4.36949 27.9945 4.96488C28.1209 5.05136 28.2934 5.0229 28.3886 4.90304L29.5613 3.42732C29.6608 3.30216 29.6411 3.12225 29.5204 3.01737C28.4241 2.06342 26.9184 1.50281 25.4167 1.50281C22.6419 1.50281 20.5495 3.23899 20.5495 5.5414C20.5495 7.87024 22.4481 8.87621 23.2641 9.20069L25.2499 10.0365C26.311 10.4803 27.012 10.7735 27.012 11.5803C27.012 12.0663 26.7664 12.8813 25.1221 12.8813C24.161 12.8813 23.0034 12.435 22.0256 11.6998C21.9 11.6054 21.7236 11.6222 21.624 11.7436L20.2565 13.409C20.1546 13.533 20.1684 13.7182 20.2923 13.8202C21.6 14.8972 23.3116 15.5085 25.0483 15.5085C28.5695 15.5085 30.1732 13.3387 30.1732 11.3228C30.1732 9.55075 29.3339 8.38812 27.5318 7.66328Z" fill="#00C4CC"/>
<path fill-rule="evenodd" clip-rule="evenodd" d="M91.0692 7.43053C90.7335 7.72795 90.2452 7.87635 89.6038 7.87635H87.5179V4.50614H89.6038C90.251 4.50614 90.7411 4.65485 91.0739 4.95204C91.4066 5.2493 91.5728 5.6651 91.5728 6.19959C91.5728 6.72316 91.4049 7.13334 91.0692 7.43053ZM94.7362 14.8248L92.1775 9.81469C92.9265 9.4729 93.4991 9.00852 93.8947 8.42116C94.2903 7.83357 94.4881 7.06662 94.4881 6.11937C94.4881 5.26836 94.2917 4.54734 93.8993 3.95694C93.5065 3.3667 92.9431 2.91994 92.2088 2.61737C91.4746 2.3148 90.604 2.16321 89.5971 2.16321H84.8842C84.7213 2.16321 84.5891 2.29523 84.5891 2.45829V14.9591C84.5891 15.122 84.7213 15.2541 84.8842 15.2541H87.2161C87.3791 15.2541 87.5112 15.122 87.5112 14.9591V10.2629H89.3149L91.7449 15.0923C91.7951 15.1915 91.8969 15.2541 92.0082 15.2541H94.4734C94.6939 15.2541 94.8366 15.0212 94.7362 14.8248Z" fill="#00C4CC"/>
<path fill-rule="evenodd" clip-rule="evenodd" d="M82.4667 2.44422V14.9586C82.4667 15.1218 82.3344 15.2541 82.1713 15.2541H79.8459C79.6826 15.2541 79.5505 15.1218 79.5505 14.9586V10.2255H74.582V14.9586C74.582 15.1218 74.4497 15.2541 74.2865 15.2541H71.9522C71.789 15.2541 71.6567 15.1218 71.6567 14.9586V2.44422C71.6567 2.281 71.789 2.14874 71.9522 2.14874H74.2865C74.4497 2.14874 74.582 2.281 74.582 2.44422V7.87618H79.5505V2.44422C79.5505 2.281 79.6826 2.14874 79.8459 2.14874H82.1713C82.3344 2.14874 82.4667 2.281 82.4667 2.44422Z" fill="#00C4CC"/>
</svg>
