<svg width="139" height="19" viewBox="0 0 139 19" fill="none" xmlns="http://www.w3.org/2000/svg">
<path d="M2.8721 9.64301V14.3011H0V0.408603H5.49446C8.82443 0.408603 10.4894 1.93405 10.4894 4.98495C10.4894 6.79642 9.79567 8.13118 8.40818 8.98925L10.427 14.3011H7.28432L5.64014 9.64301H2.8721ZM5.53608 7.23226C6.21595 7.23226 6.72238 7.02796 7.05538 6.61936C7.38838 6.21075 7.55488 5.67276 7.55488 5.00538C7.55488 4.33799 7.3745 3.80681 7.01376 3.41183C6.66688 3.01685 6.16045 2.81935 5.49446 2.81935H2.8721V7.23226H5.53608Z" fill="white"/>
<path d="M18.796 4.08602H21.5848V14.3011H18.8168V13.729C17.8178 14.2738 16.9506 14.5462 16.2152 14.5462C14.7723 14.5462 13.801 14.1581 13.3015 13.3817C12.802 12.5918 12.5523 11.2774 12.5523 9.43871V4.08602H15.3411V9.47957C15.3411 10.4875 15.4244 11.1753 15.5909 11.543C15.7574 11.9108 16.1597 12.0946 16.798 12.0946C17.4085 12.0946 17.9843 11.9993 18.5254 11.8086L18.796 11.7269V4.08602Z" fill="white"/>
<path d="M29.1966 3.84086C30.6535 3.84086 31.7149 4.23584 32.3809 5.02581C33.0608 5.80215 33.4007 7.19821 33.4007 9.21398C33.4007 11.2298 33.0122 12.6258 32.2352 13.4022C31.4582 14.1649 30.1193 14.5462 28.2184 14.5462C27.6218 14.5462 26.5326 14.4781 24.9509 14.3419L24.16 14.2602V0H26.9489V4.39247C27.8369 4.02473 28.5861 3.84086 29.1966 3.84086ZM28.2184 12.0946C29.1481 12.0946 29.7724 11.8767 30.0915 11.4409C30.4107 10.9914 30.5702 10.1946 30.5702 9.05054C30.5702 7.21183 29.9875 6.29247 28.822 6.29247C28.267 6.29247 27.7398 6.36057 27.2403 6.49677L26.9489 6.55807V12.0129C27.5871 12.0674 28.0103 12.0946 28.2184 12.0946Z" fill="white"/>
<path d="M34.3608 4.08602H37.1081L39.002 11.972H39.4807L41.3746 4.08602H44.1218L40.4589 18.5914H37.7324L38.8771 14.3011H36.9208L34.3608 4.08602Z" fill="white"/>
<path d="M48.8462 14.3011H45.9741V0.408603H48.8462V6.5172L50.761 6.3129L53.0919 0.408603H56.3595L53.2792 7.37527L56.4427 14.3011H53.1336L50.761 8.76452L48.8462 8.96882V14.3011Z" fill="white"/>
<path d="M65.9309 7.27312V11.5226C65.9586 11.8495 66.0141 12.081 66.0974 12.2172C66.1806 12.3398 66.354 12.4283 66.6177 12.4828L66.5344 14.5462C65.8268 14.5462 65.2579 14.4986 64.8278 14.4032C64.4116 14.3079 63.9884 14.1172 63.5583 13.8312C62.5593 14.3079 61.5395 14.5462 60.4989 14.5462C58.3482 14.5462 57.2729 13.4294 57.2729 11.1957C57.2729 10.1061 57.5713 9.33656 58.1679 8.8871C58.7645 8.42402 59.6802 8.15161 60.9151 8.06989L63.142 7.90645V7.27312C63.142 6.8509 63.0449 6.56487 62.8506 6.41505C62.6564 6.25161 62.3442 6.16989 61.9141 6.16989L58.0014 6.33333L57.9181 4.43333C59.4027 4.03835 60.811 3.84086 62.143 3.84086C63.4889 3.84086 64.4532 4.11326 65.0359 4.65806C65.6326 5.20287 65.9309 6.07455 65.9309 7.27312ZM61.2481 9.96989C60.4711 10.038 60.0826 10.4466 60.0826 11.1957C60.0826 11.9448 60.4225 12.3194 61.1024 12.3194C61.6297 12.3194 62.2055 12.2376 62.8298 12.0742L63.142 11.9925V9.80645L61.2481 9.96989Z" fill="white"/>
<path d="M68.5895 14.3011V4.08602H71.3783V14.3011H68.5895ZM68.5895 2.7785V0H71.3783V2.7785H68.5895Z" fill="white"/>
<path d="M83.3831 15.5677C83.3831 16.7391 82.9253 17.6039 82.0095 18.1624C81.0938 18.7208 79.852 19 78.2841 19C76.7301 19 75.53 18.7957 74.6836 18.3871C73.8511 17.9785 73.4349 17.2362 73.4349 16.1602C73.4349 15.3022 73.9343 14.4918 74.9333 13.729C74.42 13.3885 74.1633 12.871 74.1633 12.1763C74.1633 11.9039 74.3714 11.4545 74.7877 10.828L74.975 10.5419C74.0315 9.87455 73.5597 8.89391 73.5597 7.6C73.5597 6.29247 73.9552 5.34588 74.746 4.76022C75.5508 4.17455 76.6122 3.88172 77.9303 3.88172C78.5269 3.88172 79.1166 3.94982 79.6994 4.08602L80.0324 4.14731L83.3831 4.04516V6.23118L81.8222 6.1086C82.1275 6.57169 82.2801 7.03477 82.2801 7.49785C82.2801 8.85986 81.9263 9.79964 81.2187 10.3172C80.511 10.8348 79.4011 11.0935 77.8887 11.0935C77.5696 11.0935 77.2851 11.0663 77.0354 11.0118C76.8966 11.366 76.8273 11.6588 76.8273 11.8903C76.8273 12.1082 76.9452 12.2581 77.1811 12.3398C77.4169 12.4215 77.9719 12.4692 78.8461 12.4828C80.5943 12.4964 81.7875 12.728 82.4258 13.1774C83.064 13.6133 83.3831 14.41 83.3831 15.5677ZM76.1821 15.8742C76.1821 16.4599 76.9105 16.7527 78.3674 16.7527C79.8381 16.7527 80.5735 16.4122 80.5735 15.7312C80.5735 15.3634 80.4486 15.1251 80.1989 15.0161C79.9491 14.9208 79.4219 14.8663 78.6171 14.8527L76.744 14.7097C76.3694 15.0774 76.1821 15.4656 76.1821 15.8742ZM76.3486 7.51828C76.3486 8.51255 76.8758 9.00968 77.9303 9.00968C78.9987 9.00968 79.5329 8.51255 79.5329 7.51828C79.5329 6.51039 78.9987 6.00645 77.9303 6.00645C76.8758 6.00645 76.3486 6.51039 76.3486 7.51828Z" fill="white"/>
<path d="M85.0727 14.3011V4.08602H87.8615V14.3011H85.0727ZM85.0727 2.7785V0H87.8615V2.7785H85.0727Z" fill="white"/>
<path d="M104.408 14.3011H95.5V11.9108L98.4345 8.98925C99.4751 7.9405 100.197 7.13692 100.599 6.5785C101.015 6.02007 101.223 5.4276 101.223 4.80108C101.223 4.16093 101.05 3.71147 100.703 3.45269C100.37 3.19391 99.8914 3.06452 99.267 3.06452C98.3374 3.06452 97.3245 3.14624 96.2284 3.30968L95.7289 3.37097L95.5833 1.18495C96.943 0.776344 98.3513 0.572043 99.8081 0.572043C102.722 0.572043 104.179 1.85914 104.179 4.43333C104.179 5.44122 103.957 6.3129 103.513 7.04839C103.069 7.78387 102.264 8.67599 101.099 9.72473L98.7051 11.8495H104.408V14.3011Z" fill="white"/>
<path d="M107.625 2.24731C108.527 1.13047 109.858 0.572043 111.621 0.572043C113.383 0.572043 114.708 1.13047 115.596 2.24731C116.498 3.36416 116.949 5.16201 116.949 7.64086C116.949 10.1061 116.505 11.8767 115.617 12.9527C114.729 14.0151 113.397 14.5462 111.621 14.5462C109.845 14.5462 108.513 14.0151 107.625 12.9527C106.737 11.8767 106.293 10.1061 106.293 7.64086C106.293 5.16201 106.737 3.36416 107.625 2.24731ZM113.993 7.57957C113.993 5.89068 113.813 4.71255 113.452 4.04516C113.091 3.36416 112.481 3.02366 111.621 3.02366C110.774 3.02366 110.164 3.36416 109.789 4.04516C109.428 4.72617 109.248 5.9043 109.248 7.57957C109.248 9.25484 109.435 10.4262 109.81 11.0935C110.185 11.7609 110.795 12.0946 111.641 12.0946C112.488 12.0946 113.091 11.7609 113.452 11.0935C113.813 10.4262 113.993 9.25484 113.993 7.57957Z" fill="white"/>
<path d="M127.7 14.3011H118.792V11.9108L121.726 8.98925C122.767 7.9405 123.489 7.13692 123.891 6.5785C124.307 6.02007 124.515 5.4276 124.515 4.80108C124.515 4.16093 124.342 3.71147 123.995 3.45269C123.662 3.19391 123.183 3.06452 122.559 3.06452C121.629 3.06452 120.616 3.14624 119.52 3.30968L119.021 3.37097L118.875 1.18495C120.235 0.776344 121.643 0.572043 123.1 0.572043C126.014 0.572043 127.471 1.85914 127.471 4.43333C127.471 5.44122 127.249 6.3129 126.805 7.04839C126.361 7.78387 125.556 8.67599 124.39 9.72473L121.997 11.8495H127.7V14.3011Z" fill="white"/>
<path d="M138.652 14.3011H129.744V11.9108L132.679 8.98925C133.72 7.9405 134.441 7.13692 134.843 6.5785C135.26 6.02007 135.468 5.4276 135.468 4.80108C135.468 4.16093 135.294 3.71147 134.948 3.45269C134.615 3.19391 134.136 3.06452 133.511 3.06452C132.582 3.06452 131.569 3.14624 130.473 3.30968L129.973 3.37097L129.828 1.18495C131.187 0.776344 132.596 0.572043 134.053 0.572043C136.966 0.572043 138.423 1.85914 138.423 4.43333C138.423 5.44122 138.201 6.3129 137.757 7.04839C137.313 7.78387 136.508 8.67599 135.343 9.72473L132.95 11.8495H138.652V14.3011Z" fill="white"/>
</svg>
