<?xml version="1.0" encoding="utf-8"?>
<!-- Generator: Adobe Illustrator 26.2.1, SVG Export Plug-In . SVG Version: 6.00 Build 0)  -->
<svg version="1.1" id="レイヤー_1" xmlns="http://www.w3.org/2000/svg" xmlns:xlink="http://www.w3.org/1999/xlink" x="0px"
	 y="0px" viewBox="0 0 232 33" style="enable-background:new 0 0 232 33;" xml:space="preserve">
<style type="text/css">
	.st0{fill:#0B374D;}
</style>
<path class="st0" d="M11.9,24.6l-5.6-8.4H4.7v8.4H0V1.3h9.3c5.4,0,7.7,3.8,7.7,7.6c0,3.3-2.3,6.6-5.6,7.2l6,8.6H11.9z M4.7,5.4v7
	h3.8c2.6,0,3.8-1.6,3.8-3.5s-1.2-3.6-3.4-3.6H4.7z"/>
<path class="st0" d="M31.4,8.8h4.4v15.8h-4.4v-2.6c-0.7,2.1-3.2,3-4.7,3c-4.1,0-6.3-2.8-6.3-7.5V8.8h4.4v8.5c0,2.5,1.5,3.6,3,3.6
	c1.6,0,3.6-0.9,3.6-3.7V8.8z"/>
<path class="st0" d="M57.6,16.7c0,5.1-3.7,8.3-7.8,8.3c-1.8,0-4-0.7-5.1-2.4v2h-4.4V0.2h4.4v10.5c1.1-1.6,3.3-2.3,5.1-2.3
	C53.9,8.4,57.6,11.6,57.6,16.7z M53.1,16.7c0-2.3-1.8-4.2-4.1-4.2c-2.1,0-4.1,1.7-4.1,4.2c0,2.4,1.9,4.2,4.1,4.2
	C51.2,20.9,53.1,19,53.1,16.7z"/>
<path class="st0" d="M70.9,8.8h4.8l-9.8,23.6h-4.7l3.8-9.3L58.7,8.8h4.9l3.7,9.2L70.9,8.8z"/>
<path class="st0" d="M97,24.6h-6.1l-7.5-9.4v9.4h-4.7V1.3h4.7v9.6l6.5-9.6h5.7l-8.1,11.6L97,24.6z"/>
<path class="st0" d="M109.6,8.8h4.4v15.8h-4.4v-2.3c-1.1,1.6-3.1,2.7-5.2,2.7c-4.4,0-7.6-3.4-7.6-8.3c0-4.9,3.2-8.3,7.7-8.3
	c2,0,4.1,0.9,5.1,2.5V8.8z M109.5,16.7c0-2.4-1.9-4.2-4.1-4.2c-2.3,0-4,1.9-4,4.2c0,2.2,1.7,4.2,4.1,4.2
	C107.6,20.9,109.5,19,109.5,16.7z"/>
<path class="st0" d="M118,3.3c0-1.5,1.3-2.6,2.8-2.6c1.6,0,2.8,1.2,2.8,2.6S122.3,6,120.8,6C119.2,6,118,4.8,118,3.3z M118.6,24.6
	V8.8h4.4v15.8H118.6z"/>
<path class="st0" d="M139.4,8.8h4.4v13.9c0,6.9-3.5,10.1-9.1,10.1c-3.4,0-6.3-1.9-7.7-4.8l3.7-1.6c0.7,1.5,2.3,2.5,4,2.5
	c2.8,0,4.6-1.6,4.6-5.7v-0.4c-1.2,1.6-3.3,2.3-5.1,2.3c-4.1,0-7.8-3.3-7.8-8.3c0-5.1,3.7-8.3,7.8-8.3c1.8,0,3.9,0.7,5.1,2.3V8.8z
	 M139.2,16.7c0-2.4-2-4.2-4.1-4.2c-2.2,0-4.1,1.8-4.1,4.2c0,2.3,1.9,4.2,4.1,4.2C137.3,20.9,139.2,19.1,139.2,16.7z"/>
<path class="st0" d="M147.7,3.3c0-1.5,1.3-2.6,2.8-2.6c1.6,0,2.8,1.2,2.8,2.6S152.1,6,150.5,6C149,6,147.7,4.8,147.7,3.3z
	 M148.3,24.6V8.8h4.4v15.8H148.3z"/>
<path class="st0" d="M171.7,20.5h7.9v4.2h-15v-2.4l8.7-10.4c0.9-1.1,1.5-2.3,1.5-3c0-1.5-1.2-2.5-2.9-2.5c-2,0-3.1,1.3-3.4,3.2
	l-4-0.7c0.5-4,3.1-6.7,7.6-6.7s7.3,2.7,7.3,6.7c0,2.1-1,4-2.4,5.6L171.7,20.5z"/>
<path class="st0" d="M181.7,13.6c0-6.4,1.8-11.5,8.3-11.5c6.4,0,8.2,5.1,8.2,11.5c0,6.3-1.8,11.5-8.2,11.5
	C183.5,25,181.7,19.9,181.7,13.6z M193.7,13.6c0-4.1-0.8-7.3-3.7-7.3c-2.9,0-3.8,3.2-3.8,7.3c0,4,0.9,7.3,3.8,7.3
	C192.8,20.9,193.7,17.6,193.7,13.6z"/>
<path class="st0" d="M207.2,20.5h7.9v4.2h-15v-2.4l8.7-10.4c0.9-1.1,1.5-2.3,1.5-3c0-1.5-1.2-2.5-2.9-2.5c-2,0-3.1,1.3-3.4,3.2
	l-4-0.7c0.5-4,3.1-6.7,7.6-6.7s7.3,2.7,7.3,6.7c0,2.1-1,4-2.4,5.6L207.2,20.5z"/>
<path class="st0" d="M224.1,20.5h7.9v4.2h-15v-2.4l8.7-10.4c0.9-1.1,1.5-2.3,1.5-3c0-1.5-1.2-2.5-2.9-2.5c-2,0-3.1,1.3-3.4,3.2
	l-4-0.7c0.5-4,3.1-6.7,7.6-6.7s7.3,2.7,7.3,6.7c0,2.1-1,4-2.4,5.6L224.1,20.5z"/>
</svg>
