<?xml version="1.0" encoding="utf-8"?>
<!-- Generator: Adobe Illustrator 26.2.1, SVG Export Plug-In . SVG Version: 6.00 Build 0)  -->
<svg version="1.1" id="レイヤー_1" xmlns="http://www.w3.org/2000/svg" xmlns:xlink="http://www.w3.org/1999/xlink" x="0px"
	 y="0px" viewBox="0 0 139 20" style="enable-background:new 0 0 139 20;" xml:space="preserve">
<style type="text/css">
	.st0{fill:#FFFFFF;}
</style>
<path class="st0" d="M7.1,14.9l-3.3-5h-1v5H0v-14h5.6c3.2,0,4.6,2.3,4.6,4.6c0,2-1.4,3.9-3.4,4.3l3.6,5.1H7.1z M2.8,3.4v4.2h2.3
	c1.6,0,2.3-1,2.3-2.1s-0.7-2.1-2-2.1H2.8z"/>
<path class="st0" d="M18.8,5.4h2.7v9.5h-2.7v-1.5c-0.4,1.2-1.9,1.8-2.8,1.8c-2.5,0-3.8-1.7-3.8-4.5V5.4h2.7v5.1
	c0,1.5,0.9,2.2,1.8,2.2c1,0,2.1-0.5,2.1-2.2V5.4z"/>
<path class="st0" d="M34.5,10.1c0,3-2.2,5-4.7,5c-1.1,0-2.4-0.4-3-1.4v1.2h-2.7V0.2h2.7v6.3c0.7-1,2-1.4,3-1.4
	C32.3,5.1,34.5,7.1,34.5,10.1z M31.8,10.1c0-1.4-1.1-2.5-2.4-2.5c-1.2,0-2.5,1-2.5,2.5c0,1.4,1.2,2.5,2.5,2.5
	C30.7,12.6,31.8,11.5,31.8,10.1z"/>
<path class="st0" d="M42.5,5.4h2.9l-5.8,14.1h-2.8l2.3-5.5l-3.8-8.6h2.9l2.2,5.5L42.5,5.4z"/>
<path class="st0" d="M58.1,14.9h-3.7l-4.5-5.6v5.6h-2.8v-14h2.8v5.7l3.9-5.7h3.4l-4.9,6.9L58.1,14.9z"/>
<path class="st0" d="M65.7,5.4h2.7v9.5h-2.7v-1.4c-0.6,1-1.8,1.6-3.1,1.6c-2.6,0-4.6-2-4.6-5c0-2.9,1.9-5,4.6-5
	c1.2,0,2.4,0.5,3.1,1.5V5.4z M65.6,10.1c0-1.4-1.2-2.5-2.5-2.5c-1.4,0-2.4,1.1-2.4,2.5c0,1.3,1,2.5,2.4,2.5
	C64.5,12.6,65.6,11.5,65.6,10.1z"/>
<path class="st0" d="M70.7,2.1c0-0.9,0.8-1.6,1.7-1.6c0.9,0,1.7,0.7,1.7,1.6s-0.8,1.6-1.7,1.6C71.4,3.7,70.7,3,70.7,2.1z M71,14.9
	V5.4h2.7v9.5H71z"/>
<path class="st0" d="M83.5,5.4h2.7v8.3c0,4.1-2.1,6.1-5.4,6.1c-2,0-3.8-1.1-4.6-2.9l2.2-1c0.4,0.9,1.4,1.5,2.4,1.5
	c1.7,0,2.8-1,2.8-3.4v-0.3c-0.7,0.9-2,1.4-3,1.4c-2.4,0-4.7-1.9-4.7-5c0-3,2.2-5,4.7-5c1.1,0,2.4,0.4,3,1.4V5.4z M83.4,10.1
	c0-1.5-1.2-2.5-2.5-2.5c-1.3,0-2.5,1.1-2.5,2.5c0,1.4,1.1,2.5,2.5,2.5C82.3,12.6,83.4,11.6,83.4,10.1z"/>
<path class="st0" d="M88.5,2.1c0-0.9,0.8-1.6,1.7-1.6c0.9,0,1.7,0.7,1.7,1.6s-0.8,1.6-1.7,1.6C89.3,3.7,88.5,3,88.5,2.1z M88.8,14.9
	V5.4h2.7v9.5H88.8z"/>
<path class="st0" d="M102.9,12.4h4.7v2.5h-9v-1.4l5.2-6.2c0.5-0.7,0.9-1.4,0.9-1.8c0-0.9-0.7-1.5-1.8-1.5c-1.2,0-1.8,0.8-2,1.9
	l-2.4-0.4c0.3-2.4,1.9-4,4.5-4c2.7,0,4.4,1.6,4.4,4c0,1.3-0.6,2.4-1.5,3.4L102.9,12.4z"/>
<path class="st0" d="M108.9,8.3c0-3.8,1.1-6.9,5-6.9c3.8,0,4.9,3,4.9,6.9c0,3.8-1.1,6.9-4.9,6.9C110,15.1,108.9,12,108.9,8.3z
	 M116,8.3c0-2.5-0.5-4.4-2.2-4.4c-1.7,0-2.3,1.9-2.3,4.4c0,2.4,0.5,4.4,2.3,4.4C115.5,12.6,116,10.7,116,8.3z"/>
<path class="st0" d="M124.2,12.4h4.7v2.5h-9v-1.4l5.2-6.2c0.5-0.7,0.9-1.4,0.9-1.8c0-0.9-0.7-1.5-1.8-1.5c-1.2,0-1.8,0.8-2,1.9
	l-2.4-0.4c0.3-2.4,1.9-4,4.5-4s4.4,1.6,4.4,4c0,1.3-0.6,2.4-1.5,3.4L124.2,12.4z"/>
<path class="st0" d="M134.3,12.4h4.7v2.5h-9v-1.4l5.2-6.2c0.5-0.7,0.9-1.4,0.9-1.8c0-0.9-0.7-1.5-1.8-1.5c-1.2,0-1.8,0.8-2,1.9
	L130,5.4c0.3-2.4,1.9-4,4.5-4s4.4,1.6,4.4,4c0,1.3-0.6,2.4-1.5,3.4L134.3,12.4z"/>
</svg>
