<svg width="232" height="32" viewBox="0 0 232 32" fill="none" xmlns="http://www.w3.org/2000/svg">
<path d="M4.80575 16.2409V24.086H0V0.688173H9.19361C14.7655 0.688173 17.5514 3.25735 17.5514 8.3957C17.5514 11.4466 16.3906 13.6946 14.069 15.1398L17.447 24.086H12.1885L9.43738 16.2409H4.80575ZM9.26326 12.1806C10.4009 12.1806 11.2482 11.8366 11.8054 11.1484C12.3626 10.4602 12.6412 9.55412 12.6412 8.43011C12.6412 7.3061 12.3394 6.41147 11.7358 5.74624C11.1554 5.08101 10.308 4.74839 9.19361 4.74839H4.80575V12.1806H9.26326Z" fill="#0B374D"/>
<path d="M31.4504 6.88172H36.1169V24.086H31.4852V23.1226C29.8137 24.0401 28.3627 24.4989 27.1322 24.4989C24.7177 24.4989 23.0926 23.8452 22.2568 22.5376C21.421 21.2072 21.0031 18.9935 21.0031 15.8968V6.88172H25.6696V15.9656C25.6696 17.6631 25.8089 18.8215 26.0875 19.4409C26.3661 20.0602 27.0393 20.3699 28.1073 20.3699C29.1288 20.3699 30.0923 20.2093 30.9977 19.8882L31.4504 19.7505V6.88172Z" fill="#0B374D"/>
<path d="M48.8533 6.46882C51.291 6.46882 53.0671 7.13405 54.1814 8.46452C55.319 9.77204 55.8878 12.1233 55.8878 15.5183C55.8878 18.9133 55.2378 21.2645 53.9377 22.572C52.6376 23.8566 50.3972 24.4989 47.2166 24.4989C46.2183 24.4989 44.3958 24.3842 41.7492 24.1548L40.4258 24.0172V0H45.0923V7.39785C46.5781 6.77849 47.8318 6.46882 48.8533 6.46882ZM47.2166 20.3699C48.7721 20.3699 49.8168 20.0029 50.3508 19.2688C50.8847 18.5118 51.1517 17.1699 51.1517 15.243C51.1517 12.1462 50.1766 10.5979 48.2265 10.5979C47.2978 10.5979 46.4156 10.7125 45.5798 10.9419L45.0923 11.0452V20.2323C46.1602 20.324 46.8683 20.3699 47.2166 20.3699Z" fill="#0B374D"/>
<path d="M57.4944 6.88172H62.0912L65.2602 20.1634H66.0611L69.2302 6.88172H73.827L67.6979 31.3118H63.1359L65.0512 24.086H61.7778L57.4944 6.88172Z" fill="#0B374D"/>
<path d="M81.7321 24.086H76.9263V0.688173H81.7321V10.9763L84.9359 10.6323L88.8362 0.688173H94.3036L89.1496 12.4215L94.4429 24.086H88.9059L84.9359 14.7613L81.7321 15.1054V24.086Z" fill="#0B374D"/>
<path d="M110.319 12.2495V19.4065C110.365 19.957 110.458 20.347 110.598 20.5763C110.737 20.7828 111.027 20.9319 111.468 21.0237L111.329 24.4989C110.145 24.4989 109.193 24.4186 108.473 24.2581C107.777 24.0975 107.069 23.7763 106.349 23.2946C104.677 24.0975 102.971 24.4989 101.23 24.4989C97.6314 24.4989 95.8321 22.6179 95.8321 18.8559C95.8321 17.0208 96.3313 15.7247 97.3295 14.9677C98.3278 14.1878 99.8601 13.729 101.926 13.5914L105.653 13.3161V12.2495C105.653 11.5384 105.49 11.0566 105.165 10.8043C104.84 10.529 104.318 10.3914 103.598 10.3914L97.0509 10.6667L96.9117 7.46667C99.3958 6.80143 101.752 6.46882 103.981 6.46882C106.233 6.46882 107.846 6.9276 108.822 7.84516C109.82 8.76272 110.319 10.2308 110.319 12.2495ZM102.484 16.7914C101.183 16.9061 100.533 17.5943 100.533 18.8559C100.533 20.1176 101.102 20.7484 102.24 20.7484C103.122 20.7484 104.085 20.6108 105.13 20.3355L105.653 20.1979V16.5161L102.484 16.7914Z" fill="#0B374D"/>
<path d="M114.768 24.086V6.88172H119.434V24.086H114.768ZM114.768 4.67957V0H119.434V4.67957H114.768Z" fill="#0B374D"/>
<path d="M139.521 26.2194C139.521 28.1921 138.755 29.6487 137.223 30.5893C135.69 31.5298 133.613 32 130.989 32C128.389 32 126.381 31.6559 124.965 30.9677C123.572 30.2796 122.875 29.0294 122.875 27.2172C122.875 25.772 123.711 24.4072 125.382 23.1226C124.523 22.5491 124.094 21.6774 124.094 20.5075C124.094 20.0487 124.442 19.2918 125.139 18.2366L125.452 17.7548C123.873 16.6308 123.084 14.9792 123.084 12.8C123.084 10.5978 123.746 9.00358 125.069 8.0172C126.416 7.03082 128.192 6.53764 130.397 6.53764C131.395 6.53764 132.382 6.65233 133.357 6.88172L133.914 6.98495L139.521 6.8129V10.4946L136.909 10.2882C137.42 11.0681 137.675 11.848 137.675 12.628C137.675 14.9219 137.083 16.5047 135.899 17.3763C134.715 18.248 132.858 18.6839 130.327 18.6839C129.794 18.6839 129.318 18.638 128.9 18.5462C128.668 19.1427 128.551 19.6358 128.551 20.0258C128.551 20.3928 128.749 20.6452 129.143 20.7828C129.538 20.9204 130.467 21.0007 131.929 21.0237C134.855 21.0466 136.851 21.4366 137.919 22.1935C138.987 22.9276 139.521 24.2695 139.521 26.2194ZM127.472 26.7355C127.472 27.7219 128.691 28.2151 131.128 28.2151C133.589 28.2151 134.82 27.6416 134.82 26.4946C134.82 25.8753 134.611 25.4738 134.193 25.2903C133.775 25.1298 132.893 25.038 131.546 25.0151L128.412 24.7742C127.785 25.3936 127.472 26.0473 127.472 26.7355ZM127.75 12.6624C127.75 14.3369 128.633 15.1742 130.397 15.1742C132.185 15.1742 133.079 14.3369 133.079 12.6624C133.079 10.9649 132.185 10.1161 130.397 10.1161C128.633 10.1161 127.75 10.9649 127.75 12.6624Z" fill="#0B374D"/>
<path d="M142.348 24.086V6.88172H147.015V24.086H142.348ZM142.348 4.67957V0H147.015V4.67957H142.348Z" fill="#0B374D"/>
<path d="M174.7 24.086H159.796V20.0602L164.706 15.1398C166.447 13.3735 167.654 12.0201 168.328 11.0796C169.024 10.1391 169.372 9.14122 169.372 8.08602C169.372 7.00789 169.082 6.2509 168.502 5.81506C167.945 5.37921 167.144 5.16129 166.099 5.16129C164.543 5.16129 162.849 5.29893 161.014 5.57419L160.179 5.67742L159.935 1.9957C162.21 1.30753 164.567 0.963442 167.004 0.963442C171.88 0.963442 174.317 3.13118 174.317 7.46667C174.317 9.16416 173.946 10.6323 173.203 11.871C172.46 13.1097 171.114 14.6122 169.163 16.3785L165.159 19.957H174.7V24.086Z" fill="#0B374D"/>
<path d="M180.083 3.78495C181.592 1.90394 183.821 0.963442 186.769 0.963442C189.718 0.963442 191.935 1.90394 193.421 3.78495C194.93 5.66595 195.684 8.69391 195.684 12.8688C195.684 17.0208 194.942 20.0029 193.456 21.8151C191.97 23.6043 189.741 24.4989 186.769 24.4989C183.798 24.4989 181.569 23.6043 180.083 21.8151C178.597 20.0029 177.854 17.0208 177.854 12.8688C177.854 8.69391 178.597 5.66595 180.083 3.78495ZM190.739 12.7656C190.739 9.92115 190.438 7.93692 189.834 6.8129C189.23 5.66595 188.209 5.09247 186.769 5.09247C185.353 5.09247 184.332 5.66595 183.705 6.8129C183.101 7.95986 182.8 9.94409 182.8 12.7656C182.8 15.5871 183.113 17.5599 183.74 18.6839C184.367 19.8079 185.388 20.3699 186.804 20.3699C188.221 20.3699 189.23 19.8079 189.834 18.6839C190.438 17.5599 190.739 15.5871 190.739 12.7656Z" fill="#0B374D"/>
<path d="M213.674 24.086H198.769V20.0602L203.679 15.1398C205.42 13.3735 206.628 12.0201 207.301 11.0796C207.997 10.1391 208.346 9.14122 208.346 8.08602C208.346 7.00789 208.055 6.2509 207.475 5.81506C206.918 5.37921 206.117 5.16129 205.072 5.16129C203.517 5.16129 201.822 5.29893 199.988 5.57419L199.152 5.67742L198.908 1.9957C201.183 1.30753 203.54 0.963442 205.978 0.963442C210.853 0.963442 213.291 3.13118 213.291 7.46667C213.291 9.16416 212.919 10.6323 212.176 11.871C211.433 13.1097 210.087 14.6122 208.137 16.3785L204.132 19.957H213.674V24.086Z" fill="#0B374D"/>
<path d="M232 24.086H217.095V20.0602L222.005 15.1398C223.747 13.3735 224.954 12.0201 225.627 11.0796C226.324 10.1391 226.672 9.14122 226.672 8.08602C226.672 7.00789 226.382 6.2509 225.801 5.81506C225.244 5.37921 224.443 5.16129 223.398 5.16129C221.843 5.16129 220.148 5.29893 218.314 5.57419L217.478 5.67742L217.234 1.9957C219.51 1.30753 221.866 0.963442 224.304 0.963442C229.179 0.963442 231.617 3.13118 231.617 7.46667C231.617 9.16416 231.245 10.6323 230.503 11.871C229.76 13.1097 228.413 14.6122 226.463 16.3785L222.458 19.957H232V24.086Z" fill="#0B374D"/>
</svg>
