<svg width="484" height="56" viewBox="0 0 484 56" fill="none" xmlns="http://www.w3.org/2000/svg">
  <path d="M40.15 17.8C40.15 20.7 39.4333 23.15 38 25.15C36.6 27.15 34.1833 28.6 30.75 29.5C31.15 30.0333 31.4333 30.45 31.6 30.75L39.7 42H26.1C24.6333 39.2667 22.3167 35.4 19.15 30.4H11.8V42H1.41561e-07C0.266667 35.5333 0.4 29.4833 0.4 23.85C0.4 18.2167 0.266667 12.1667 1.41561e-07 5.7H11.8V5.75H22.05C28.7833 5.75 33.4833 6.83333 36.15 9C38.8167 11.1667 40.15 14.1 40.15 17.8ZM11.8 15.35V21.05H18.55C21.3833 21.05 23.5167 20.9667 24.95 20.8C26.4167 20.6 27.4333 20.3 28 19.9C28.5667 19.5 28.85 18.9167 28.85 18.15C28.85 17.4167 28.5833 16.85 28.05 16.45C27.5167 16.05 26.5167 15.7667 25.05 15.6C23.5833 15.4333 21.4167 15.35 18.55 15.35H11.8ZM74.8906 14.7C74.6573 18.9 74.5406 23.4333 74.5406 28.3C74.5406 33.2 74.6573 37.7667 74.8906 42C72.7573 41.9 71.074 41.85 69.8406 41.85C68.674 41.85 66.9906 41.9 64.7906 42L63.3406 34.65C62.574 37.3167 61.374 39.3 59.7406 40.6C58.1073 41.8667 56.2073 42.5 54.0406 42.5C52.0406 42.5 50.3073 42.0667 48.8406 41.2C47.374 40.3 46.2573 39.1 45.4906 37.6C44.7573 36.1 44.3906 34.4167 44.3906 32.55V25.35C44.3906 20.9167 44.3073 17.3667 44.1406 14.7H55.3906C55.1906 19.6 55.0906 24.45 55.0906 29.25C55.0906 30.7167 55.4406 31.8833 56.1406 32.75C56.874 33.6167 57.7906 34.05 58.8906 34.05C59.924 34.05 60.824 33.6 61.5906 32.7C62.3906 31.7667 62.874 30.5 63.0406 28.9V27.75C63.1073 25.15 63.1406 23.35 63.1406 22.35C63.1406 20.05 63.074 17.5 62.9406 14.7H74.8906ZM100.606 14.2C102.84 14.2 104.823 14.8833 106.556 16.25C108.323 17.5833 109.69 19.3667 110.656 21.6C111.623 23.8 112.106 26.15 112.106 28.65C112.106 31.1833 111.623 33.5167 110.656 35.65C109.69 37.75 108.34 39.4167 106.606 40.65C104.873 41.8833 102.923 42.5 100.756 42.5C98.2229 42.5 96.0229 41.9667 94.1563 40.9C92.2896 39.8 90.8896 38.0833 89.9563 35.75L88.5063 42H78.9063C79.1063 35.7333 79.2063 29.25 79.2063 22.55C79.2063 15.7833 79.1063 9.3 78.9063 3.1H90.2063L90.0563 9.25C89.8896 13.5833 89.8063 17.45 89.8063 20.85C90.7063 18.5833 92.0729 16.9167 93.9063 15.85C95.7729 14.75 98.0063 14.2 100.606 14.2ZM95.5063 34.1C97.1063 34.1 98.3729 33.5667 99.3063 32.5C100.24 31.4333 100.706 30.05 100.706 28.35C100.706 26.8167 100.19 25.5833 99.1563 24.65C98.1563 23.6833 96.9063 23.2 95.4063 23.2C94.6396 23.2 93.8396 23.3833 93.0063 23.75C92.1729 24.0833 91.4563 24.65 90.8563 25.45C90.2563 26.2167 89.9563 27.1833 89.9563 28.35C89.9563 30.4167 90.4229 31.9 91.3563 32.8C92.2896 33.6667 93.6729 34.1 95.5063 34.1ZM146.035 14.7L144.885 17.6C141.718 26.0333 138.401 34.1667 134.935 42C133.135 46 130.535 49.2 127.135 51.6C123.735 54.0333 119.468 55.2 114.335 55.1C113.701 52.3333 113.168 50.1667 112.735 48.6C112.335 47.0667 111.801 45.5167 111.135 43.95C112.968 44.3833 114.685 44.6 116.285 44.6C118.885 44.6 120.951 44.05 122.485 42.95C121.285 39.3833 119.868 35.55 118.235 31.45C116.601 27.35 114.235 21.7667 111.135 14.7H122.985C123.385 16.3667 123.935 18.3 124.635 20.5C125.335 22.7 126.035 24.8167 126.735 26.85C126.935 27.4833 127.251 28.45 127.685 29.75C128.151 31.0167 128.518 32.0833 128.785 32.95L130.085 29C132.585 21.7667 134.068 17 134.535 14.7H146.035ZM174.147 42C172.58 39.1667 169.98 34.8333 166.347 29L160.497 34.8V42H148.047C148.314 35.5333 148.447 29.4833 148.447 23.85C148.447 18.2167 148.314 12.1667 148.047 5.7H160.497V20.35C166.63 14.2833 170.997 9.4 173.597 5.7H189.797L174.047 21.3C176.38 24.5667 178.997 28.1167 181.897 31.95C184.83 35.7833 187.48 39.1333 189.847 42H174.147ZM224.921 33.7C224.921 34.8333 225.054 35.6333 225.321 36.1C225.588 36.5667 226.121 36.9 226.921 37.1L226.721 41.8C225.654 41.9667 224.721 42.0833 223.921 42.15C223.154 42.2167 222.121 42.25 220.821 42.25C217.954 42.25 216.054 41.6167 215.121 40.35C214.188 39.05 213.721 37.4 213.721 35.4V34.15C212.754 36.8833 211.338 38.9167 209.471 40.25C207.638 41.5833 205.288 42.25 202.421 42.25C199.088 42.25 196.571 41.5833 194.871 40.25C193.204 38.9167 192.371 36.9333 192.371 34.3C192.371 32.1333 193.088 30.4333 194.521 29.2C195.954 27.9667 198.171 27.1167 201.171 26.65C198.638 24.85 196.104 23.2833 193.571 21.95C195.571 19.4167 197.854 17.5 200.421 16.2C202.988 14.8667 206.104 14.2 209.771 14.2C214.904 14.2 218.704 15.3167 221.171 17.55C223.671 19.75 224.921 23.15 224.921 27.75V33.7ZM210.821 23C209.121 23 207.621 23.2833 206.321 23.85C205.021 24.4167 203.854 25.2667 202.821 26.4C204.821 26.1667 207.321 26.05 210.321 26.05C211.554 26.05 212.421 25.9 212.921 25.6C213.421 25.3 213.671 24.9167 213.671 24.45C213.671 24.05 213.421 23.7167 212.921 23.45C212.421 23.15 211.721 23 210.821 23ZM205.571 34.1C207.438 34.1 209.121 33.75 210.621 33.05C212.121 32.3167 213.154 31.3667 213.721 30.2V28.9C212.921 29.3 212.038 29.6167 211.071 29.85C210.104 30.05 208.938 30.25 207.571 30.45L205.771 30.75C203.904 31.1167 202.971 31.75 202.971 32.65C202.971 33.6167 203.838 34.1 205.571 34.1ZM236.632 11.75C234.532 11.75 232.965 11.2333 231.932 10.2C230.932 9.16666 230.432 7.81666 230.432 6.15C230.432 4.51667 230.932 3.16666 231.932 2.1C232.965 1.03333 234.532 0.499998 236.632 0.499998C238.632 0.499998 240.165 1.05 241.232 2.15C242.298 3.21666 242.832 4.55 242.832 6.15C242.832 7.81666 242.315 9.16666 241.282 10.2C240.248 11.2333 238.698 11.75 236.632 11.75ZM230.832 42C231.065 36.6333 231.182 32.2 231.182 28.7C231.182 24.5333 231.048 19.8667 230.782 14.7H242.782C242.515 19.6667 242.382 24.3333 242.382 28.7C242.382 32.3667 242.498 36.8 242.732 42H230.832ZM270.914 14.7H280.514C280.348 20.1667 280.264 27.9333 280.264 38C280.264 41.9667 279.464 45.2167 277.864 47.75C276.298 50.2833 274.214 52.1167 271.614 53.25C269.014 54.4167 266.114 55 262.914 55C259.748 55 256.914 54.5333 254.414 53.6C251.914 52.7 250.014 51.4833 248.714 49.95L250.964 42.3C252.764 43.3333 254.464 44.0667 256.064 44.5C257.664 44.9667 259.331 45.2 261.064 45.2C266.731 45.2 269.564 42.8 269.564 38C269.564 37.3 269.581 36.8 269.614 36.5C269.614 36.3 269.614 36.0333 269.614 35.7C269.648 35.3667 269.648 34.9333 269.614 34.4C267.914 39.1333 264.314 41.5 258.814 41.5C256.581 41.5 254.581 40.9 252.814 39.7C251.081 38.5 249.731 36.8833 248.764 34.85C247.798 32.7833 247.314 30.5167 247.314 28.05C247.314 25.5167 247.798 23.2 248.764 21.1C249.731 18.9667 251.081 17.2833 252.814 16.05C254.548 14.8167 256.498 14.2 258.664 14.2C264.298 14.2 267.964 16.1833 269.664 20.15L270.914 14.7ZM264.014 33.5C264.781 33.5 265.581 33.3333 266.414 33C267.248 32.6333 267.964 32.0667 268.564 31.3C269.164 30.5 269.464 29.5167 269.464 28.35C269.464 26.2833 268.998 24.8167 268.064 23.95C267.131 23.05 265.748 22.6 263.914 22.6C262.314 22.6 261.048 23.1333 260.114 24.2C259.181 25.2667 258.714 26.65 258.714 28.35C258.714 29.8833 259.214 31.1333 260.214 32.1C261.248 33.0333 262.514 33.5 264.014 33.5ZM291.221 11.75C289.121 11.75 287.555 11.2333 286.521 10.2C285.521 9.16666 285.021 7.81666 285.021 6.15C285.021 4.51667 285.521 3.16666 286.521 2.1C287.555 1.03333 289.121 0.499998 291.221 0.499998C293.221 0.499998 294.755 1.05 295.821 2.15C296.888 3.21666 297.421 4.55 297.421 6.15C297.421 7.81666 296.905 9.16666 295.871 10.2C294.838 11.2333 293.288 11.75 291.221 11.75ZM285.421 42C285.655 36.6333 285.771 32.2 285.771 28.7C285.771 24.5333 285.638 19.8667 285.371 14.7H297.371C297.105 19.6667 296.971 24.3333 296.971 28.7C296.971 32.3667 297.088 36.8 297.321 42H285.421ZM324.464 33.25C335.297 32.65 343.697 31.9833 349.664 31.25C349.097 32.9833 348.664 34.8167 348.364 36.75C348.064 38.6833 347.914 40.4333 347.914 42H312.164L312.114 40.95C312.114 37.6833 313.064 34.85 314.964 32.45C316.897 30.05 319.581 27.8333 323.014 25.8C324.014 25.2 325.581 24.4333 327.714 23.5C330.481 22.3 332.614 21.25 334.114 20.35C335.614 19.4167 336.364 18.5 336.364 17.6C336.364 16.4667 335.897 15.5667 334.964 14.9C334.031 14.2333 332.581 13.9 330.614 13.9C328.447 13.9 326.797 14.45 325.664 15.55C324.564 16.65 324.014 18.05 324.014 19.75C324.014 20.2833 324.064 20.8333 324.164 21.4C319.964 20.8667 315.881 20.5 311.914 20.3C311.914 17.4667 312.647 14.9167 314.114 12.65C315.614 10.35 317.847 8.53333 320.814 7.2C323.814 5.86666 327.481 5.2 331.814 5.2C335.781 5.2 339.081 5.75 341.714 6.85C344.381 7.91667 346.331 9.28333 347.564 10.95C348.831 12.5833 349.464 14.2667 349.464 16C349.464 18 349.014 19.7167 348.114 21.15C347.247 22.5833 345.981 23.8667 344.314 25C342.681 26.1 340.481 27.3 337.714 28.6C337.314 28.8 336.664 29.0333 335.764 29.3C334.864 29.5333 334.297 29.6833 334.064 29.75C331.697 30.45 329.814 31.0333 328.414 31.5C327.014 31.9667 325.697 32.55 324.464 33.25ZM374.612 42.5C367.445 42.5 362.162 40.85 358.762 37.55C355.362 34.25 353.662 29.6667 353.662 23.8C353.662 17.9667 355.362 13.4167 358.762 10.15C362.195 6.85 367.479 5.2 374.612 5.2C381.745 5.2 387.012 6.85 390.412 10.15C393.812 13.4167 395.512 17.9667 395.512 23.8C395.512 29.6667 393.812 34.25 390.412 37.55C387.012 40.85 381.745 42.5 374.612 42.5ZM374.662 33.75C377.729 33.75 379.962 32.8167 381.362 30.95C382.762 29.05 383.462 26.6667 383.462 23.8C383.462 20.9667 382.762 18.6167 381.362 16.75C379.962 14.85 377.729 13.9 374.662 13.9C371.495 13.9 369.195 14.85 367.762 16.75C366.362 18.6167 365.662 20.9667 365.662 23.8C365.662 26.6333 366.362 29 367.762 30.9C369.195 32.8 371.495 33.75 374.662 33.75ZM412.062 33.25C422.895 32.65 431.295 31.9833 437.262 31.25C436.695 32.9833 436.262 34.8167 435.962 36.75C435.662 38.6833 435.512 40.4333 435.512 42H399.762L399.712 40.95C399.712 37.6833 400.662 34.85 402.562 32.45C404.495 30.05 407.178 27.8333 410.612 25.8C411.612 25.2 413.178 24.4333 415.312 23.5C418.078 22.3 420.212 21.25 421.712 20.35C423.212 19.4167 423.962 18.5 423.962 17.6C423.962 16.4667 423.495 15.5667 422.562 14.9C421.628 14.2333 420.178 13.9 418.212 13.9C416.045 13.9 414.395 14.45 413.262 15.55C412.162 16.65 411.612 18.05 411.612 19.75C411.612 20.2833 411.662 20.8333 411.762 21.4C407.562 20.8667 403.478 20.5 399.512 20.3C399.512 17.4667 400.245 14.9167 401.712 12.65C403.212 10.35 405.445 8.53333 408.412 7.2C411.412 5.86666 415.078 5.2 419.412 5.2C423.378 5.2 426.678 5.75 429.312 6.85C431.978 7.91667 433.928 9.28333 435.162 10.95C436.428 12.5833 437.062 14.2667 437.062 16C437.062 18 436.612 19.7167 435.712 21.15C434.845 22.5833 433.578 23.8667 431.912 25C430.278 26.1 428.078 27.3 425.312 28.6C424.912 28.8 424.262 29.0333 423.362 29.3C422.462 29.5333 421.895 29.6833 421.662 29.75C419.295 30.45 417.412 31.0333 416.012 31.5C414.612 31.9667 413.295 32.55 412.062 33.25ZM483.46 26.25V35.65H476.66V42H464.71C464.843 40.6 464.943 38.4833 465.01 35.65H441.26V25.55C449.026 19.5833 455.96 12.9667 462.06 5.7H476.66V26.25H483.46ZM465.26 15.6C462.96 17.9667 460.976 19.95 459.31 21.55C457.643 23.1167 455.76 24.6833 453.66 26.25H465.11L465.26 15.6Z" fill="black"/>
</svg>
