<svg width="1000" height="206" viewBox="0 0 1000 206" fill="none" xmlns="http://www.w3.org/2000/svg">
<path d="M223.485 140.156V64.0615H235.952V140.156H223.485ZM232.049 107.87V97.543H251.237C255.067 97.543 258.03 96.5647 260.162 94.5355C262.294 92.5426 263.378 89.7886 263.378 86.2376C263.378 83.0489 262.33 80.3674 260.234 78.1933C258.139 76.0192 255.176 74.9321 251.345 74.9321H232.049V64.0615H251.887C256.657 64.0615 260.849 65.0399 264.462 66.9242C268.076 68.8446 270.858 71.4535 272.882 74.7509C274.869 78.0483 275.845 81.8168 275.845 85.9839C275.845 90.4046 274.869 94.2455 272.882 97.5067C270.894 100.768 268.076 103.304 264.462 105.116C260.849 106.928 256.657 107.834 251.887 107.834H232.049V107.87ZM265.113 140.156L238.554 107.109L250.153 102.87L280.831 140.156H265.113Z" fill="black"/>
<path d="M308.836 141.243C304.427 141.243 300.489 140.264 297.092 138.307C293.659 136.351 290.985 133.633 289.07 130.191C287.155 126.748 286.215 122.799 286.215 118.306V87.9766H298.14V117.762C298.14 120.299 298.573 122.473 299.404 124.248C300.236 126.024 301.464 127.401 303.09 128.306C304.716 129.249 306.668 129.72 308.908 129.72C312.377 129.72 315.015 128.669 316.894 126.64C318.737 124.574 319.64 121.639 319.64 117.762V87.9766H331.564V118.306C331.564 122.871 330.625 126.893 328.71 130.299C326.795 133.742 324.157 136.423 320.724 138.344C317.291 140.264 313.389 141.206 308.908 141.206L308.836 141.243Z" fill="black"/>
<path d="M343.092 140.156V61.8877H355.016V100.804L352.956 113.414L355.016 126.133V140.156H343.092ZM370.951 141.243C366.977 141.243 363.435 140.374 360.328 138.707C357.22 137.004 354.763 134.685 353.029 131.677C351.258 128.706 350.355 125.336 350.355 121.567V106.566C350.355 102.797 351.258 99.4276 353.065 96.4563C354.871 93.485 357.329 91.1659 360.436 89.4266C363.544 87.7236 367.049 86.8539 370.951 86.8539C375.649 86.8539 379.877 88.0859 383.707 90.5136C387.501 92.9414 390.5 96.2026 392.705 100.297C394.909 104.392 396.029 109.03 396.029 114.175C396.029 119.321 394.945 123.85 392.705 127.909C390.5 132.003 387.501 135.228 383.707 137.656C379.913 140.047 375.649 141.243 370.951 141.243ZM369 129.938C371.891 129.938 374.42 129.249 376.661 127.909C378.865 126.568 380.599 124.72 381.864 122.328C383.129 119.937 383.779 117.183 383.779 114.067C383.779 110.95 383.129 108.197 381.864 105.805C380.599 103.413 378.865 101.565 376.661 100.225C374.457 98.884 371.891 98.1955 369 98.1955C366.109 98.1955 363.544 98.884 361.303 100.225C359.063 101.565 357.329 103.413 356.1 105.805C354.871 108.197 354.257 110.95 354.257 114.067C354.257 117.183 354.871 119.937 356.1 122.328C357.329 124.72 359.063 126.604 361.303 127.909C363.544 129.249 366.109 129.938 369 129.938Z" fill="black"/>
<path d="M419.517 140.699L397.294 87.9766H410.411L425.587 126.676H421.793L437.837 87.9766H451.062L426.888 140.699H419.517ZM404.015 161.897L420.167 128.524L426.888 140.699L417.24 161.897H404.015Z" fill="black"/>
<path d="M459.048 140.156V64.0615H471.514V140.156H459.048ZM504.903 140.156L469.78 100.478L504.144 64.0615H520.079L482.138 103.631V96.7821L521.164 140.156H504.903Z" fill="black"/>
<path d="M544.362 141.243C539.665 141.243 535.401 140.047 531.607 137.656C527.812 135.264 524.813 132.039 522.609 127.908C520.405 123.814 519.285 119.212 519.285 114.175C519.285 109.138 520.369 104.428 522.609 100.297C524.813 96.2022 527.812 92.941 531.607 90.5132C535.401 88.0854 539.629 86.8535 544.362 86.8535C548.337 86.8535 551.842 87.7231 554.914 89.4262C557.985 91.1293 560.406 93.4846 562.213 96.4559C564.02 99.4272 564.923 102.797 564.923 106.565V121.567C564.923 125.335 564.02 128.705 562.285 131.677C560.514 134.648 558.057 137.003 554.95 138.706C551.842 140.409 548.301 141.243 544.326 141.243H544.362ZM546.314 129.937C550.722 129.937 554.299 128.452 557.009 125.48C559.719 122.509 561.056 118.704 561.056 114.066C561.056 110.95 560.442 108.196 559.214 105.805C557.985 103.413 556.287 101.565 554.082 100.224C551.878 98.8836 549.277 98.1951 546.35 98.1951C543.423 98.1951 540.893 98.8836 538.689 100.224C536.485 101.565 534.75 103.413 533.486 105.805C532.221 108.196 531.607 110.95 531.607 114.066C531.607 117.182 532.221 119.936 533.486 122.328C534.75 124.719 536.485 126.604 538.689 127.908C540.893 129.249 543.423 129.937 546.35 129.937H546.314ZM560.298 140.156V126.133L562.357 113.414L560.298 100.804V87.9768H572.222V140.156H560.298Z" fill="black"/>
<path d="M590.651 78.4107C588.627 78.4107 586.929 77.7222 585.628 76.3453C584.291 74.9683 583.604 73.2652 583.604 71.2361C583.604 69.2069 584.291 67.5039 585.628 66.127C586.965 64.75 588.627 64.0615 590.651 64.0615C592.674 64.0615 594.445 64.75 595.746 66.127C597.047 67.5039 597.697 69.2069 597.697 71.2361C597.697 73.2652 597.047 74.9683 595.746 76.3453C594.445 77.7222 592.747 78.4107 590.651 78.4107ZM584.689 140.156V87.9769H596.613V140.156H584.689Z" fill="black"/>
<path d="M630.327 139.069C625.702 139.069 621.546 137.909 617.824 135.626C614.102 133.343 611.175 130.227 609.043 126.241C606.911 122.255 605.864 117.798 605.864 112.87C605.864 107.942 606.911 103.522 609.043 99.6083C611.175 95.6949 614.102 92.5787 617.824 90.3321C621.546 88.0855 625.702 86.8896 630.327 86.8896C634.446 86.8896 638.06 87.7231 641.167 89.3899C644.275 91.0567 646.696 93.3395 648.43 96.2746C650.165 99.2097 651.032 102.616 651.032 106.529V119.357C651.032 123.198 650.129 126.604 648.358 129.575C646.587 132.546 644.13 134.865 641.059 136.532C637.951 138.199 634.374 139.032 630.327 139.032V139.069ZM630.869 162.984C625.376 162.984 620.57 162.006 616.451 160.013C612.332 158.02 609.007 155.193 606.478 151.57L614.283 143.743C616.379 146.352 618.764 148.309 621.438 149.613C624.112 150.918 627.328 151.57 631.086 151.57C635.783 151.57 639.505 150.374 642.251 147.946C644.997 145.519 646.371 142.185 646.371 137.982V125.154L648.43 113.631L646.371 102V87.9768H658.295V137.982C658.295 142.982 657.139 147.33 654.826 151.099C652.514 154.831 649.298 157.73 645.178 159.868C641.059 161.969 636.289 163.02 630.869 163.02V162.984ZM632.712 127.763C635.602 127.763 638.132 127.147 640.3 125.915C642.468 124.683 644.13 122.98 645.323 120.77C646.515 118.559 647.129 115.987 647.129 112.979C647.129 109.972 646.515 107.435 645.323 105.189C644.13 102.978 642.468 101.275 640.3 100.043C638.132 98.8111 635.602 98.1951 632.712 98.1951C629.821 98.1951 627.291 98.8111 625.051 100.043C622.847 101.275 621.149 102.978 619.92 105.189C618.691 107.399 618.077 110.008 618.077 112.979C618.077 115.95 618.691 118.451 619.92 120.697C621.149 122.944 622.847 124.683 625.051 125.915C627.255 127.147 629.821 127.763 632.712 127.763Z" fill="black"/>
<path d="M676.688 78.4107C674.664 78.4107 672.966 77.7222 671.665 76.3453C670.328 74.9683 669.641 73.2652 669.641 71.2361C669.641 69.2069 670.328 67.5039 671.665 66.127C673.002 64.75 674.664 64.0615 676.688 64.0615C678.711 64.0615 680.482 64.75 681.783 66.127C683.083 67.5039 683.734 69.2069 683.734 71.2361C683.734 73.2652 683.083 74.9683 681.783 76.3453C680.482 77.7222 678.783 78.4107 676.688 78.4107ZM670.725 140.156V87.9769H682.65V140.156H670.725Z" fill="black"/>
<path d="M714.087 132.764L742.055 102.979C744.368 100.515 746.247 98.3042 747.692 96.3475C749.138 94.3908 750.186 92.5428 750.836 90.8035C751.487 89.0642 751.812 87.2886 751.812 85.4769C751.812 82.0707 750.692 79.4255 748.487 77.4688C746.283 75.5483 743.465 74.6063 740.068 74.6063C736.455 74.6063 733.275 75.5121 730.528 77.3239C727.782 79.1357 725.325 81.962 723.157 85.803L714.485 78.6283C717.448 73.4829 721.097 69.6058 725.433 66.9244C729.77 64.2792 734.792 62.9746 740.502 62.9746C745.199 62.9746 749.319 63.9167 752.86 65.801C756.401 67.6852 759.147 70.3304 761.098 73.6641C763.05 77.034 764.025 80.9475 764.025 85.3682C764.025 88.5569 763.664 91.4194 762.905 93.8834C762.146 96.3836 760.846 98.8839 759.039 101.384C757.232 103.884 754.739 106.82 751.559 110.153L730.095 132.438L714.051 132.764H714.087ZM714.087 140.156V132.764L724.819 128.959H765.579V140.156H714.087Z" fill="black"/>
<path d="M804.569 141.243C798.859 141.243 793.62 139.649 788.922 136.424C784.189 133.199 780.394 128.633 777.612 122.799C774.794 116.929 773.384 110.008 773.384 102.036C773.384 94.0644 774.757 87.1798 777.54 81.3097C780.322 75.4758 784.044 70.9826 788.778 67.7938C793.475 64.6051 798.679 63.0107 804.388 63.0107C810.097 63.0107 815.409 64.6051 820.107 67.7938C824.804 70.9826 828.526 75.512 831.308 81.3097C834.091 87.1436 835.5 94.0645 835.5 102.145C835.5 110.226 834.127 117.038 831.308 122.908C828.526 128.778 824.804 133.307 820.143 136.496C815.481 139.685 810.278 141.279 804.605 141.279L804.569 141.243ZM804.352 129.503C808.11 129.503 811.362 128.488 814.108 126.459C816.854 124.43 818.986 121.386 820.576 117.328C822.13 113.269 822.925 108.16 822.925 102C822.925 95.8401 822.13 90.8395 820.576 86.7812C819.022 82.7228 816.854 79.7153 814.072 77.7223C811.29 75.7294 808.037 74.7148 804.352 74.7148C800.666 74.7148 797.414 75.7294 794.668 77.7223C791.885 79.7153 789.717 82.7229 788.199 86.745C786.682 90.7671 785.923 95.8762 785.923 102.036C785.923 108.196 786.682 113.305 788.199 117.364C789.717 121.422 791.849 124.466 794.668 126.495C797.45 128.524 800.702 129.539 804.352 129.539V129.503Z" fill="black"/>
<path d="M840.414 132.764L868.383 102.979C870.695 100.515 872.574 98.3042 874.02 96.3475C875.465 94.3908 876.513 92.5428 877.163 90.8035C877.814 89.0642 878.139 87.2886 878.139 85.4769C878.139 82.0707 877.019 79.4255 874.815 77.4688C872.61 75.5483 869.792 74.6063 866.395 74.6063C862.782 74.6063 859.602 75.5121 856.856 77.3239C854.109 79.1357 851.652 81.962 849.484 85.803L840.812 78.6283C843.775 73.4829 847.424 69.6058 851.761 66.9244C856.097 64.2792 861.12 62.9746 866.829 62.9746C871.526 62.9746 875.646 63.9167 879.187 65.801C882.728 67.6852 885.474 70.3304 887.426 73.6641C889.377 77.034 890.353 80.9475 890.353 85.3682C890.353 88.5569 889.991 91.4194 889.232 93.8834C888.474 96.3836 887.173 98.8839 885.366 101.384C883.559 103.884 881.066 106.82 877.886 110.153L856.422 132.438L840.378 132.764H840.414ZM840.414 140.156V132.764L851.146 128.959H891.906V140.156H840.414Z" fill="black"/>
<path d="M924.97 141.243C919.911 141.243 915.358 140.083 911.311 137.728C907.264 135.373 904.048 132.22 901.699 128.234C899.35 124.248 898.158 119.828 898.158 114.972C898.158 108.015 900.579 100.985 905.421 93.8831L926.126 64.0977H940.544L918.429 95.2963L913.876 98.0139C914.599 96.3471 915.502 94.9339 916.623 93.7019C917.743 92.5061 919.224 91.6002 921.067 90.948C922.91 90.2958 925.187 89.9697 927.933 89.9697C932.341 89.9697 936.352 90.9843 939.929 93.0497C943.507 95.1151 946.398 97.9777 948.53 101.637C950.698 105.297 951.782 109.573 951.782 114.501C951.782 119.429 950.589 123.922 948.204 127.981C945.819 132.039 942.567 135.264 938.52 137.655C934.437 140.047 929.884 141.243 924.897 141.243H924.97ZM924.97 129.503C927.716 129.503 930.173 128.85 932.341 127.546C934.509 126.241 936.244 124.466 937.472 122.183C938.737 119.9 939.387 117.364 939.387 114.501C939.387 111.638 938.773 109.138 937.472 106.892C936.208 104.645 934.509 102.906 932.341 101.637C930.173 100.369 927.716 99.717 924.97 99.717C922.223 99.717 919.766 100.369 917.598 101.674C915.43 102.978 913.732 104.754 912.503 106.964C911.275 109.174 910.66 111.711 910.66 114.501C910.66 117.291 911.275 119.864 912.503 122.183C913.732 124.466 915.43 126.241 917.598 127.546C919.766 128.85 922.223 129.503 924.97 129.503Z" fill="black"/>
<path d="M167.115 91.3472C164.694 89.3905 162.346 87.4701 160.43 85.9482H101.964L105.253 80.549H148.795L147.061 75.15H108.541L111.829 69.7509H139.797L139.364 69.4247L143.158 64.4968C143.158 64.4968 143.158 64.4243 143.086 64.3156H115.117L118.406 58.9165H141.098C140.52 57.3221 139.834 55.4742 139.111 53.5174H121.658L124.946 48.1184H137.123C136.437 46.2704 135.75 44.4585 135.136 42.7192H128.234L131.523 37.3202H133.149C132.065 34.4576 131.378 32.5733 131.306 32.5371C131.233 32.5371 129.138 33.9141 126.102 35.8708L88.3777 98.0869L84.5474 93.9924L115.659 42.7192C111.54 45.4007 107.601 48.0097 105.18 49.6041L102.868 53.4087L102.94 57.3584H100.447L80.681 89.934L76.8507 85.8395L94.1592 57.3221H93.3281L85.523 62.9387L84.9449 62.0689L73.0204 81.7448L69.1901 77.6502L81.223 57.8295C80.0305 57.8657 77.6818 57.9744 74.7549 58.0831L65.3598 73.5919L61.5295 69.4973L68.2867 58.3367C66.1548 58.4092 63.9506 58.5179 61.8186 58.5904L57.6992 65.4026L53.869 61.308L55.3505 58.8803C51.1589 59.0615 48.1597 59.2063 48.0874 59.2426C48.0874 59.2788 48.6294 61.4168 49.4605 64.533L106.12 124.865L102.398 128.815L52.4236 75.5485C53.5076 79.5344 54.5917 83.5566 55.4228 86.6004L62.1077 93.7388L62.8665 93.9562L62.722 94.391L98.7122 132.728L94.9903 136.678L60.7707 100.225L59.8312 103.124L61.7463 109.175L91.2684 140.627L87.5466 144.577L58.4219 113.56L56.7597 114.031C56.7597 114.031 56.29 115.734 55.5312 118.379L82.5961 147.222L85.1255 143.562L91.4853 148.237L130.294 106.965L133.185 111.748L97.9172 149.251H102.47L102.362 152.404L136.112 116.531L139.002 121.314L105.072 157.368C106.301 158.202 107.854 159.252 109.625 160.412L141.893 126.097L144.784 130.88L114.142 163.456C115.659 164.47 117.177 165.485 118.695 166.499L142.074 141.606L139.002 137.547L146.808 131.931L148.542 126.677L127.15 91.3472H133.474L153.276 124.032L155.661 124.901C155.661 124.901 156.817 123.995 158.66 122.546L139.761 91.3835H146.085L162.924 119.176C164.261 118.125 165.706 116.966 167.188 115.806L152.372 91.3835H158.696L171.451 112.4C172.933 111.204 174.378 110.081 175.715 109.03L165.019 91.3835H167.188L167.115 91.3472ZM127.367 102.182L109.733 120.915L92.1357 102.145L98.7122 91.3472H120.827L127.403 102.182H127.367ZM175.282 97.9782L179.907 105.624C181.352 104.464 182.22 103.74 182.256 103.703C182.256 103.703 179.22 101.203 175.282 97.9782ZM48.7017 142.693L52.9656 147.222C55.1698 147.331 57.8799 147.476 60.7346 147.621L50.4 136.605C49.7496 138.888 49.1714 140.99 48.7017 142.693ZM127.765 172.551L133.727 166.21C135.281 162.187 137.123 157.259 138.786 152.947L123.212 169.507C124.982 170.667 126.536 171.717 127.765 172.551ZM52.0984 130.518L68.5035 148.019C71.3582 148.164 74.0683 148.309 76.2725 148.418L53.7967 124.466C53.2547 126.423 52.6765 128.489 52.0984 130.554V130.518Z" fill="black"/>
</svg>
