<svg width="1000" height="804" viewBox="0 0 1000 804" fill="none" xmlns="http://www.w3.org/2000/svg">
<path d="M77.2437 717.392V629.112H91.7523V717.392H77.2437ZM87.1964 679.943V667.962H109.52C113.971 667.962 117.44 666.806 119.929 664.494C122.417 662.182 123.643 658.959 123.643 654.861C123.643 651.147 122.417 648.064 119.999 645.542C117.545 643.02 114.111 641.759 109.66 641.759H87.1964V629.147H110.291C115.828 629.147 120.735 630.268 124.94 632.475C129.145 634.717 132.405 637.73 134.718 641.549C137.03 645.367 138.187 649.711 138.187 654.615C138.187 659.73 137.03 664.214 134.718 667.997C132.405 671.781 129.145 674.723 124.94 676.825C120.735 678.927 115.863 679.978 110.291 679.978H87.1964V679.943ZM125.676 717.392L94.7662 679.067L108.259 674.163L143.969 717.427H125.676V717.392Z" fill="black"/>
<path d="M176.316 718.653C171.2 718.653 166.609 717.532 162.614 715.255C158.619 712.978 155.5 709.86 153.292 705.867C151.049 701.873 149.962 697.284 149.962 692.064V656.893H163.84V691.434C163.84 694.376 164.331 696.864 165.277 698.93C166.258 700.997 167.66 702.574 169.553 703.66C171.445 704.746 173.688 705.306 176.316 705.306C180.346 705.306 183.43 704.115 185.603 701.698C187.741 699.316 188.827 695.883 188.827 691.434V656.893H202.705V692.064C202.705 697.354 201.584 702.013 199.376 706.007C197.133 710 194.049 713.118 190.089 715.325C186.129 717.567 181.538 718.653 176.351 718.653H176.316Z" fill="black"/>
<path d="M215.987 717.393V626.591H229.865V671.746L227.482 686.39L229.865 701.138V717.393H215.987ZM248.403 718.654C243.778 718.654 239.642 717.673 236.033 715.676C232.423 713.714 229.584 710.982 227.517 707.549C225.449 704.116 224.433 700.192 224.433 695.813V678.402C224.433 674.024 225.484 670.135 227.587 666.667C229.689 663.234 232.563 660.501 236.173 658.54C239.782 656.578 243.883 655.562 248.403 655.562C253.871 655.562 258.812 656.963 263.228 659.801C267.643 662.603 271.148 666.387 273.706 671.151C276.264 675.915 277.561 681.275 277.561 687.23C277.561 693.186 276.264 698.44 273.706 703.17C271.148 707.934 267.643 711.682 263.228 714.45C258.812 717.217 253.871 718.619 248.403 718.619V718.654ZM246.126 705.552C249.49 705.552 252.469 704.781 255.027 703.205C257.585 701.663 259.618 699.491 261.09 696.724C262.562 693.956 263.298 690.769 263.298 687.125C263.298 683.482 262.562 680.329 261.09 677.527C259.618 674.759 257.585 672.587 255.027 671.046C252.469 669.504 249.49 668.699 246.126 668.699C242.761 668.699 239.782 669.469 237.154 671.046C234.561 672.587 232.528 674.759 231.091 677.527C229.654 680.294 228.953 683.482 228.953 687.125C228.953 690.769 229.654 693.921 231.091 696.724C232.528 699.526 234.526 701.663 237.154 703.205C239.747 704.746 242.761 705.552 246.126 705.552Z" fill="black"/>
<path d="M304.721 718.023L278.857 656.857H294.137L311.8 701.768H307.384L326.063 656.857H341.448L313.307 718.023H304.721ZM286.672 742.615L305.457 703.905L313.272 718.023L302.057 742.615H286.672Z" fill="black"/>
<path d="M350.455 717.392V629.112H364.963V717.392H350.455ZM403.828 717.392L362.966 671.36L402.952 629.112H421.491L377.334 675.004V667.051L422.753 717.357H403.828V717.392Z" fill="black"/>
<path d="M449.492 718.653C444.025 718.653 439.084 717.252 434.668 714.485C430.252 711.717 426.748 707.934 424.189 703.205C421.631 698.475 420.334 693.151 420.334 687.265C420.334 681.38 421.631 675.95 424.189 671.186C426.748 666.421 430.252 662.638 434.668 659.836C439.084 657.033 444.025 655.597 449.492 655.597C454.118 655.597 458.218 656.578 461.793 658.574C465.367 660.536 468.206 663.269 470.309 666.702C472.411 670.135 473.463 674.058 473.463 678.437V695.848C473.463 700.227 472.446 704.115 470.379 707.584C468.311 711.017 465.473 713.749 461.863 715.711C458.253 717.673 454.118 718.689 449.492 718.689V718.653ZM451.77 705.552C456.886 705.552 461.057 703.835 464.211 700.367C467.365 696.934 468.942 692.52 468.942 687.125C468.942 683.517 468.241 680.329 466.804 677.526C465.367 674.759 463.37 672.587 460.812 671.046C458.253 669.504 455.239 668.698 451.805 668.698C448.371 668.698 445.462 669.469 442.903 671.046C440.345 672.587 438.313 674.759 436.841 677.526C435.369 680.294 434.633 683.482 434.633 687.125C434.633 690.768 435.369 693.921 436.841 696.724C438.313 699.491 440.345 701.663 442.903 703.205C445.462 704.746 448.441 705.552 451.805 705.552H451.77ZM468.031 717.392V701.138L470.414 686.389L468.031 671.746V656.858H481.909V717.392H468.031Z" fill="black"/>
<path d="M503.181 645.753C500.833 645.753 498.87 644.948 497.328 643.371C495.786 641.76 494.98 639.798 494.98 637.451C494.98 635.104 495.751 633.107 497.328 631.531C498.87 629.919 500.833 629.148 503.181 629.148C505.529 629.148 507.597 629.954 509.104 631.531C510.611 633.142 511.382 635.104 511.382 637.451C511.382 639.798 510.611 641.795 509.104 643.371C507.597 644.983 505.599 645.753 503.181 645.753ZM496.242 717.393V656.858H510.12V717.393H496.242Z" fill="black"/>
<path d="M549.09 716.13C543.693 716.13 538.856 714.799 534.511 712.172C530.165 709.509 526.766 705.901 524.278 701.277C521.79 696.653 520.563 691.468 520.563 685.758C520.563 680.048 521.79 674.898 524.278 670.379C526.766 665.825 530.165 662.252 534.511 659.589C538.856 656.927 543.693 655.631 549.09 655.631C553.891 655.631 558.096 656.612 561.706 658.538C565.315 660.465 568.154 663.128 570.152 666.561C572.184 669.959 573.166 673.952 573.166 678.471V693.36C573.166 697.809 572.149 701.767 570.082 705.2C568.014 708.634 565.175 711.331 561.566 713.258C557.956 715.184 553.786 716.165 549.09 716.165V716.13ZM549.72 743.875C543.342 743.875 537.735 742.719 532.934 740.407C528.133 738.095 524.278 734.837 521.334 730.633L530.411 721.56C532.864 724.573 535.632 726.85 538.751 728.356C541.87 729.863 545.62 730.633 549.966 730.633C555.433 730.633 559.778 729.232 562.967 726.395C566.157 723.592 567.769 719.739 567.769 714.869V699.981L570.152 686.599L567.769 673.112V656.857H581.646V714.869C581.646 720.684 580.315 725.729 577.616 730.073C574.918 734.417 571.168 737.78 566.402 740.232C561.601 742.684 556.064 743.875 549.756 743.875H549.72ZM551.858 703.029C555.223 703.029 558.166 702.328 560.69 700.892C563.213 699.455 565.175 697.458 566.542 694.901C567.944 692.344 568.61 689.331 568.61 685.898C568.61 682.465 567.909 679.452 566.542 676.895C565.14 674.338 563.213 672.341 560.69 670.905C558.166 669.468 555.223 668.768 551.858 668.768C548.494 668.768 545.515 669.468 542.957 670.905C540.398 672.341 538.401 674.338 536.964 676.895C535.527 679.452 534.826 682.465 534.826 685.898C534.826 689.331 535.527 692.239 536.964 694.866C538.401 697.459 540.398 699.49 542.957 700.927C545.515 702.363 548.494 703.064 551.858 703.064V703.029Z" fill="black"/>
<path d="M602.849 645.753C600.501 645.753 598.538 644.948 596.996 643.371C595.454 641.76 594.648 639.798 594.648 637.451C594.648 635.104 595.419 633.107 596.996 631.531C598.538 629.919 600.501 629.148 602.849 629.148C605.197 629.148 607.265 629.954 608.772 631.531C610.279 633.142 611.049 635.104 611.049 637.451C611.049 639.798 610.279 641.795 608.772 643.371C607.265 644.983 605.267 645.753 602.849 645.753ZM595.91 717.393V656.858H609.788V717.393H595.91Z" fill="black"/>
<path d="M646.375 708.809L678.932 674.268C681.63 671.396 683.803 668.838 685.485 666.561C687.167 664.284 688.394 662.147 689.13 660.116C689.901 658.084 690.251 656.052 690.251 653.95C690.251 649.992 688.955 646.909 686.396 644.667C683.838 642.425 680.579 641.339 676.619 641.339C672.413 641.339 668.699 642.39 665.509 644.492C662.32 646.593 659.447 649.886 656.923 654.335L646.83 645.998C650.265 640.043 654.54 635.523 659.587 632.441C664.633 629.358 670.486 627.852 677.109 627.852C682.576 627.852 687.377 628.938 691.478 631.145C695.578 633.316 698.802 636.364 701.08 640.288C703.358 644.211 704.479 648.73 704.479 653.845C704.479 657.558 704.024 660.851 703.148 663.759C702.272 666.667 700.765 669.574 698.662 672.447C696.559 675.354 693.651 678.717 689.971 682.606L664.984 708.459L646.305 708.845L646.375 708.809ZM646.375 717.392V708.809L658.851 704.395H706.302V717.392H646.375Z" fill="black"/>
<path d="M751.44 718.653C744.781 718.653 738.719 716.797 733.217 713.048C727.714 709.3 723.299 704.045 720.04 697.214C716.745 690.418 715.133 682.361 715.133 673.112C715.133 663.864 716.745 655.842 720.005 649.081C723.229 642.32 727.609 637.065 733.076 633.387C738.543 629.673 744.606 627.852 751.23 627.852C757.853 627.852 764.056 629.708 769.523 633.387C774.99 637.1 779.336 642.32 782.595 649.081C785.819 655.842 787.466 663.899 787.466 673.217C787.466 682.536 785.854 690.488 782.595 697.319C779.371 704.115 775.025 709.37 769.593 713.083C764.161 716.797 758.134 718.618 751.475 718.618L751.44 718.653ZM751.195 705.026C755.575 705.026 759.36 703.835 762.549 701.488C765.738 699.141 768.262 695.603 770.049 690.908C771.871 686.214 772.747 680.259 772.747 673.112C772.747 665.966 771.836 660.151 770.049 655.456C768.227 650.762 765.703 647.224 762.479 644.912C759.255 642.6 755.47 641.444 751.195 641.444C746.919 641.444 743.134 642.6 739.91 644.912C736.686 647.224 734.163 650.727 732.411 655.386C730.658 660.046 729.747 665.966 729.747 673.112C729.747 680.259 730.623 686.179 732.411 690.908C734.163 695.603 736.686 699.141 739.91 701.488C743.134 703.835 746.919 705.026 751.195 705.026Z" fill="black"/>
<path d="M792.969 708.809L825.525 674.268C828.224 671.396 830.397 668.838 832.079 666.561C833.761 664.284 834.988 662.147 835.723 660.116C836.494 658.084 836.845 656.052 836.845 653.95C836.845 649.992 835.548 646.909 832.99 644.667C830.432 642.425 827.173 641.339 823.212 641.339C819.007 641.339 815.292 642.39 812.103 644.492C808.914 646.593 806.04 649.886 803.517 654.335L793.424 645.998C796.859 640.043 801.134 635.523 806.181 632.441C811.227 629.358 817.08 627.852 823.703 627.852C829.17 627.852 833.971 628.938 838.071 631.145C842.172 633.316 845.396 636.364 847.674 640.288C849.952 644.211 851.073 648.73 851.073 653.845C851.073 657.558 850.618 660.851 849.741 663.759C848.865 666.667 847.358 669.574 845.256 672.447C843.153 675.354 840.244 678.717 836.565 682.606L811.577 708.459L792.898 708.845L792.969 708.809ZM792.969 717.392V708.809L805.445 704.395H852.896V717.392H792.969Z" fill="black"/>
<path d="M891.13 718.654C885.242 718.654 879.95 717.288 875.219 714.555C870.523 711.823 866.773 708.145 864.04 703.52C861.306 698.896 859.939 693.782 859.939 688.142C859.939 680.084 862.743 671.922 868.385 663.69L892.496 629.148H909.283L883.56 665.336L878.268 668.489C879.109 666.562 880.16 664.881 881.492 663.514C882.789 662.113 884.506 661.062 886.679 660.291C888.817 659.521 891.48 659.17 894.704 659.17C899.821 659.17 904.482 660.362 908.652 662.779C912.822 665.161 916.152 668.489 918.675 672.728C921.198 676.966 922.46 681.941 922.46 687.686C922.46 693.431 921.058 698.616 918.289 703.31C915.521 708.004 911.736 711.753 907.005 714.52C902.239 717.288 896.982 718.689 891.165 718.689L891.13 718.654ZM891.13 705.027C894.319 705.027 897.192 704.256 899.716 702.75C902.239 701.243 904.236 699.141 905.708 696.514C907.18 693.852 907.916 690.909 907.916 687.616C907.916 684.323 907.18 681.38 905.708 678.788C904.236 676.196 902.239 674.129 899.716 672.658C897.192 671.186 894.319 670.451 891.13 670.451C887.94 670.451 885.067 671.221 882.543 672.728C880.02 674.234 878.058 676.266 876.621 678.858C875.184 681.415 874.483 684.358 874.483 687.616C874.483 690.874 875.184 693.852 876.621 696.514C878.058 699.176 880.02 701.243 882.543 702.75C885.067 704.256 887.94 705.027 891.13 705.027Z" fill="black"/>
<path d="M274.863 466.11C273.181 472.241 271.884 476.935 271.253 479.387L273.286 481.524C276.475 481.734 282.538 482.085 290.318 482.505L274.898 466.11H274.863Z" fill="black"/>
<path d="M601.938 503.349C606.319 491.894 610.209 481.594 612.872 474.658L535.493 556.702C538.927 558.979 542.256 561.186 545.41 563.288L601.938 503.349Z" fill="black"/>
<path d="M723.65 353.941C726.839 351.418 729.958 348.966 732.937 346.584L690.147 276.346H700.1C694.948 272.212 690.007 268.218 685.521 264.61H461.373L468.522 252.875H642.135L638.386 241.139H475.671L482.821 229.403H634.636L632.113 221.486L626.926 217.668H489.97L497.119 205.932H610.945L604.041 200.853L609.193 194.197H504.268L511.417 182.461H617.604C617.043 180.99 615.501 176.751 613.258 170.726H518.567L525.716 158.99H608.948C607.581 155.312 606.144 151.353 604.602 147.254H532.865L540.014 135.519H600.292C598.855 131.63 597.383 127.707 595.946 123.783H547.163L554.312 112.048H591.6C590.093 108.019 588.657 104.061 587.255 100.312H561.462L568.611 88.5766H582.874C581.192 84.0926 579.72 80.099 578.459 76.8411H575.725L577.407 74.0736C575.83 69.8698 574.849 67.3826 574.744 67.3125C574.569 67.3125 570.223 70.115 563.354 74.529L419.389 311.062L411.013 302.199L540.61 89.3123C533.321 94.0766 525.47 99.1562 517.796 104.166L402.673 293.336L394.332 284.473L494.981 119.124C483.662 126.516 474.9 132.261 472.132 134.083L471.221 135.554L471.676 157.203L458.114 157.133L385.991 275.61L377.65 266.747L444.411 157.098H436.842L425.872 164.98L369.31 257.919L360.934 249.056L406.387 174.334L399.133 163.684L352.558 240.193L344.218 231.33L388.129 159.165C384.449 159.305 379.613 159.516 374.041 159.726L335.877 222.467L327.536 213.604L359.953 160.321C355.432 160.496 350.701 160.707 345.865 160.882L319.195 204.741L310.855 195.878L331.777 161.477C327.01 161.687 322.279 161.863 317.653 162.073L302.479 187.015L294.103 178.152L303.53 162.668C298.379 162.879 293.577 163.089 289.407 163.299L285.762 169.289L280.506 163.719C275.564 163.965 272.585 164.14 272.48 164.175C272.445 164.315 273.532 168.554 275.319 175.35L488.603 401.829L480.508 410.411L281.697 199.276C283.73 206.843 285.938 215.04 288.18 223.273L472.447 418.959L464.352 427.542L294.664 247.34C297.187 256.658 299.465 265.066 301.182 271.406L315.796 286.925L326.029 290.008L324.137 295.753L456.257 436.089L448.161 444.672L319.931 308.47L315.726 321.151L440.066 453.22L431.97 461.803L322.034 345.043L325.644 356.323L318.494 358.425L423.875 470.35L417.462 477.146L426.994 484.153L571.835 330.68L578.143 341.049L437.472 490.143L453.558 490.213L584.486 351.453L590.794 361.823L469.574 490.283H470.029L469.504 507.484L597.103 372.227L603.411 382.596L476.232 517.398C478.931 519.184 482.295 521.426 486.15 524.019L609.754 393.001L616.062 403.37L496.033 530.605C499.187 532.706 502.516 534.948 505.95 537.226L622.37 413.774L628.678 424.144L613.679 440.048L631.166 427.472L635.827 413.319L552.771 276.626H566.508L640.663 398.641L642.065 394.367L654.506 398.851L580.211 276.626H593.948L667.929 398.29C670.312 396.434 673.466 393.912 677.215 390.969L607.686 276.626H621.424L686.502 383.612C689.446 381.3 692.565 378.813 695.789 376.291L635.161 276.626H648.899L705.076 368.934C708.16 366.517 711.279 364.03 714.363 361.577L662.672 276.626H676.409L723.685 354.221L723.65 353.941ZM565.422 319.995L496.523 393.001L427.66 319.89L454.189 276.311H538.893L565.422 319.995Z" fill="black"/>
<path d="M525.61 550.117L611.506 459.07L604.321 449.576L515.728 543.531C519.022 545.738 522.351 547.945 525.645 550.152L525.61 550.117Z" fill="black"/>
<path d="M579.965 560.801C583.154 552.533 587.009 542.444 591.004 531.97L555.293 569.839C559.183 572.396 562.548 574.638 565.246 576.39L579.965 560.766V560.801Z" fill="black"/>
<path d="M670.907 252.838C666.562 249.335 663.933 247.233 663.933 247.233L647.812 252.838H670.907Z" fill="black"/>
<path d="M282.222 439.662C280.926 444.251 279.699 448.7 278.542 452.869L307.279 483.381C312.676 483.662 318.389 483.942 324.206 484.257L282.222 439.662Z" fill="black"/>
<path d="M305.773 361.822L303.95 362.348C303.95 362.348 302.724 366.657 300.761 373.628L400.079 479.108L406.948 469.264L305.808 361.787L305.773 361.822Z" fill="black"/>
<path d="M734.619 304.159C726.313 297.433 716.816 289.762 707.529 282.3L742.188 339.191C745.693 336.424 748.812 333.901 751.44 331.799L734.584 304.159H734.619Z" fill="black"/>
<path d="M297.047 386.835C295.89 390.934 294.629 395.383 293.332 400.042L374.987 486.78C382.802 487.165 388.83 487.446 391.914 487.621L297.082 386.87L297.047 386.835Z" fill="black"/>
<path d="M289.617 413.248C288.39 417.627 287.128 422.041 285.902 426.455L341.133 485.133C346.95 485.413 352.663 485.693 358.06 485.974L289.617 413.248Z" fill="black"/>
</svg>
