<svg width="32" height="32" viewBox="0 0 32 32" fill="none" xmlns="http://www.w3.org/2000/svg">
  <path d="M16 15.9999C14.5333 15.9999 13.2778 15.4777 12.2333 14.4333C11.1889 13.3888 10.6667 12.1333 10.6667 10.6666C10.6667 9.19992 11.1889 7.94436 12.2333 6.89992C13.2778 5.85547 14.5333 5.33325 16 5.33325C17.4667 5.33325 18.7222 5.85547 19.7667 6.89992C20.8111 7.94436 21.3333 9.19992 21.3333 10.6666C21.3333 12.1333 20.8111 13.3888 19.7667 14.4333C18.7222 15.4777 17.4667 15.9999 16 15.9999ZM5.33333 26.6666V22.9333C5.33333 22.1777 5.52777 21.4833 5.91666 20.8499C6.30555 20.2166 6.82222 19.7333 7.46666 19.3999C8.84444 18.711 10.2444 18.1944 11.6667 17.8499C13.0889 17.5055 14.5333 17.3333 16 17.3333C17.4667 17.3333 18.9111 17.5055 20.3333 17.8499C21.7556 18.1944 23.1556 18.711 24.5333 19.3999C25.1778 19.7333 25.6944 20.2166 26.0833 20.8499C26.4722 21.4833 26.6667 22.1777 26.6667 22.9333V26.6666H5.33333ZM7.99999 23.9999H24V22.9333C24 22.6888 23.9389 22.4666 23.8167 22.2666C23.6944 22.0666 23.5333 21.911 23.3333 21.7999C22.1333 21.1999 20.9222 20.7499 19.7 20.4499C18.4778 20.1499 17.2444 19.9999 16 19.9999C14.7556 19.9999 13.5222 20.1499 12.3 20.4499C11.0778 20.7499 9.86666 21.1999 8.66666 21.7999C8.46666 21.911 8.30555 22.0666 8.18333 22.2666C8.06111 22.4666 7.99999 22.6888 7.99999 22.9333V23.9999ZM16 13.3333C16.7333 13.3333 17.3611 13.0721 17.8833 12.5499C18.4056 12.0277 18.6667 11.3999 18.6667 10.6666C18.6667 9.93325 18.4056 9.30547 17.8833 8.78325C17.3611 8.26103 16.7333 7.99992 16 7.99992C15.2667 7.99992 14.6389 8.26103 14.1167 8.78325C13.5944 9.30547 13.3333 9.93325 13.3333 10.6666C13.3333 11.3999 13.5944 12.0277 14.1167 12.5499C14.6389 13.0721 15.2667 13.3333 16 13.3333Z" fill="#5E626E"/>
</svg>
