<svg xmlns="http://www.w3.org/2000/svg" xml:space="preserve" style="fill-rule:evenodd;clip-rule:evenodd;stroke-linejoin:round;stroke-miterlimit:2" viewBox="0 0 238 36"><path d="M1033.05 312.323h328.21v227.798h-328.21z" style="fill:none" transform="matrix(.72515 0 0 .15804 -749.114 -49.358)"/><path d="M474.148 718.496c-9.734 0-17.653-7.92-17.653-17.653 0-9.735 7.919-17.654 17.653-17.654 9.734 0 17.653 7.919 17.653 17.654 0 9.733-7.919 17.653-17.653 17.653Zm142.665-19.709v.471a.978.978 0 0 0-.36.074c-.124.05-.186.116-.186.199l.025 11.575c0 2.066-.595 3.664-1.785 4.796-1.189 1.132-2.809 1.698-4.858 1.698-.842 0-1.735-.235-2.677-.706s-1.809-1.17-2.602-2.095c-.017-.049-.067-.074-.149-.074-.132 0-.273.058-.422.173l-.272-.371 3.098-2.454.298.371a1.122 1.122 0 0 0-.236.273c-.074.116-.087.215-.037.298.413.578.859 1.007 1.338 1.288.48.281 1.058.422 1.735.422 1.074 0 1.917-.26 2.529-.781.611-.521.917-1.31.917-2.367v-2.256c-1.041.81-2.24 1.215-3.594 1.215-1.223 0-2.31-.252-3.26-.756a5.537 5.537 0 0 1-2.23-2.132c-.538-.917-.806-1.97-.806-3.16 0-1.19.281-2.235.843-3.136a5.657 5.657 0 0 1 2.28-2.082c.958-.487 2.016-.731 3.173-.731 1.388 0 2.586.38 3.594 1.14v-.892h3.644Zm-55.027.471c-.347 0-.562.066-.644.198l-8.676 17.078c-.017.017-.025.042-.025.075 0 .099.058.182.174.248a.89.89 0 0 0 .446.099v.471h-4.66v-.471c.347 0 .562-.066.645-.198l4.04-7.957-5.081-9.369c-.067-.116-.282-.174-.645-.174v-.471h4.586v.471c-.199 0-.319.042-.36.124-.041.083-.029.174.037.273l3.148 5.825 2.95-5.8a.106.106 0 0 0 .025-.075c0-.099-.058-.181-.174-.248a.903.903 0 0 0-.446-.099v-.471h4.66v.471Zm-87.638-14.033c-8.611 0-15.617 7.007-15.617 15.618s7.006 15.616 15.617 15.616 15.617-7.005 15.617-15.616-7.006-15.618-15.617-15.618Zm-9.243 25.515a.857.857 0 0 0-.249.644.843.843 0 0 0 .303.609 14.36 14.36 0 0 0 7.801 3.238c.026.002.052.004.079.004a.854.854 0 0 0 .846-.852v-4.422a8.981 8.981 0 0 1-5.634-2.367l-3.146 3.146Zm9.706 3.643c0 .24.102.47.28.632a.84.84 0 0 0 .645.216 14.354 14.354 0 0 0 7.8-3.238.845.845 0 0 0 .304-.609.858.858 0 0 0-.249-.644l-3.146-3.146a8.99 8.99 0 0 1-5.634 2.367v4.422Zm216.61-15.905a5.751 5.751 0 0 1 2.342 2.255c.554.966.831 2.095.831 3.384 0 1.337-.285 2.515-.856 3.531a5.95 5.95 0 0 1-2.416 2.368c-1.041.562-2.248.842-3.619.842-1.157 0-2.19-.231-3.099-.693-.908-.462-1.842-1.182-2.8-2.157-.034-.033-.083-.049-.149-.049-.132 0-.298.073-.496.222l-.297-.347 3.321-2.875.322.347c-.099.083-.19.191-.272.322-.083.133-.099.232-.05.297.43.53.938.956 1.525 1.278a3.973 3.973 0 0 0 1.945.482c1.19 0 2.082-.33 2.677-.991.595-.661.893-1.537.893-2.628 0-.991-.327-1.8-.979-2.429-.654-.626-1.484-.942-2.492-.942-.661 0-1.243.129-1.747.385s-.897.582-1.177.98l-3.396-.621.099-.471a.601.601 0 0 0 .223.025c.248 0 .38-.058.397-.174l1.859-8.502v-.049c0-.065-.037-.115-.112-.149a.635.635 0 0 0-.26-.049v-.471h8.898c.083 0 .149-.058.199-.174a.88.88 0 0 0 .074-.346h.471v4.015h-.471a.88.88 0 0 0-.074-.347c-.05-.115-.116-.173-.199-.173h-5.8l-.744 3.37a6.623 6.623 0 0 1 1.934-.273c1.322 0 2.487.269 3.495.807Zm-39.361 11.476a6.247 6.247 0 0 1-2.541-2.367c-.636-1.041-.954-2.288-.954-3.743v-5.626c0-1.206.248-2.363.744-3.47.496-1.107 1.264-2.012 2.305-2.715 1.041-.702 2.321-1.053 3.842-1.053 1.652 0 2.999.347 4.04 1.041s1.793 1.591 2.256 2.689c.462 1.1.694 2.268.694 3.508v5.725c0 2.198-.632 3.884-1.896 5.057-1.264 1.173-2.954 1.76-5.069 1.76a7.448 7.448 0 0 1-3.421-.806Zm26.72-3.26v4.015h-.471a.888.888 0 0 0-.074-.347c-.05-.116-.116-.173-.199-.173H665.22v-.769l7.362-8.03c.71-.777 1.28-1.479 1.71-2.107.429-.628.644-1.289.644-1.983 0-.942-.289-1.719-.867-2.33-.579-.611-1.323-.917-2.231-.917-.81 0-1.524.281-2.144.842-.62.562-.946 1.273-.979 2.132.016.083.099.149.248.198.148.05.289.075.421.075v.471h-4.66v-.471c.116 0 .248-.025.397-.075.148-.049.223-.115.223-.198a6.918 6.918 0 0 1 .967-3.012c.545-.9 1.301-1.615 2.268-2.144.966-.528 2.102-.793 3.408-.793 1.371 0 2.528.302 3.47.905.942.603 1.648 1.388 2.119 2.355.471.966.707 1.979.707 3.036 0 .76-.121 1.446-.36 2.057a7.753 7.753 0 0 1-1.053 1.835c-.463.611-1.149 1.412-2.058 2.404l-3.222 3.545h6.246c.083 0 .149-.058.199-.174a.884.884 0 0 0 .074-.347h.471Zm-33.164 0v4.015h-.471a.888.888 0 0 0-.074-.347c-.05-.116-.116-.173-.199-.173h-12.616v-.769l7.362-8.03c.71-.777 1.28-1.479 1.71-2.107.429-.628.644-1.289.644-1.983 0-.942-.289-1.719-.867-2.33-.579-.611-1.323-.917-2.231-.917-.81 0-1.524.281-2.144.842-.62.562-.946 1.273-.979 2.132.016.083.099.149.248.198.149.05.289.075.421.075v.471h-4.66v-.471c.116 0 .248-.025.397-.075.148-.049.223-.115.223-.198a6.918 6.918 0 0 1 .967-3.012c.545-.9 1.301-1.615 2.268-2.144.966-.528 2.102-.793 3.408-.793 1.371 0 2.528.302 3.47.905.942.603 1.648 1.388 2.119 2.355.471.966.707 1.979.707 3.036 0 .76-.121 1.446-.36 2.057a7.753 7.753 0 0 1-1.053 1.835c-.463.611-1.149 1.412-2.058 2.404l-3.222 3.545h6.246c.083 0 .149-.058.199-.174a.884.884 0 0 0 .074-.347h.471Zm-51.333-7.435a.978.978 0 0 0-.36.074c-.124.05-.185.116-.185.198v9.915c0 .083.061.149.185.198a.96.96 0 0 0 .36.075v.471h-3.669v-1.363c-1.041 1.123-2.354 1.685-3.941 1.685-1.206 0-2.268-.244-3.185-.731a5.146 5.146 0 0 1-2.131-2.095c-.505-.908-.756-1.966-.756-3.172 0-1.173.276-2.219.83-3.136a5.79 5.79 0 0 1 2.218-2.132 6.235 6.235 0 0 1 3.024-.756c1.587 0 2.9.612 3.941 1.835v-1.537h3.669v.471Zm-50.663-.013a5.73 5.73 0 0 1 2.268 2.119c.553.909.83 1.958.83 3.148 0 1.207-.273 2.26-.818 3.161a5.597 5.597 0 0 1-2.243 2.094c-.951.496-2.029.743-3.235.743-1.388 0-2.594-.412-3.619-1.239v.917h-3.618v-.471a.957.957 0 0 0 .359-.074c.124-.049.186-.115.186-.198v-17.103c0-.083-.062-.149-.186-.198a.96.96 0 0 0-.359-.075v-.471h4.164v.471a.96.96 0 0 0-.36.075c-.124.049-.186.115-.186.198v7.312c.992-.777 2.198-1.165 3.619-1.165 1.173 0 2.239.252 3.198.756Zm-13.484 10.2c0 .083.062.149.186.198.124.05.243.074.359.074v.472h-3.073v-.918a4.509 4.509 0 0 1-3.049 1.141c-1.735 0-3.008-.5-3.817-1.5-.81-1-1.215-2.251-1.215-3.755v-5.627c0-.082-.062-.149-.186-.198a.96.96 0 0 0-.359-.075v-.47h4.214v.47a.96.96 0 0 0-.36.075c-.124.049-.186.116-.186.198v5.429c0 .71.182 1.309.546 1.797.363.487.925.731 1.685.731.727 0 1.272-.224 1.636-.67.363-.446.545-1.016.545-1.71v-5.577c0-.082-.062-.149-.186-.198a.955.955 0 0 0-.359-.075v-.47h4.164v.47a.955.955 0 0 0-.359.075c-.124.049-.186.116-.186.198v9.915Zm-42.248-8.14h-4.526a8.982 8.982 0 0 1-2.269 5.628l3.152 3.152c.16.16.378.25.604.25l.04-.001a.845.845 0 0 0 .609-.304 14.354 14.354 0 0 0 3.238-7.8.845.845 0 0 0-.216-.645.856.856 0 0 0-.632-.28Zm-27.081 0c-.24 0-.47.102-.632.28a.845.845 0 0 0-.216.645 14.354 14.354 0 0 0 3.238 7.8c.15.182.372.292.609.304l.04.001c.226 0 .444-.09.604-.25l3.152-3.152a8.982 8.982 0 0 1-2.269-5.628h-4.526Zm55.646 8.238c.066.116.289.174.669.174v.471h-5.031v-.471c.231 0 .388-.041.47-.124.083-.083.091-.165.025-.248l-4.164-7.015h-2.553v7.114c0 .083.066.149.198.198.132.05.256.075.372.075v.471h-4.462v-.471c.116 0 .24-.025.372-.075.132-.049.199-.115.199-.198v-17.103c0-.082-.062-.148-.186-.198a.958.958 0 0 0-.36-.074v-.471h7.56c2.181 0 3.83.492 4.945 1.474 1.116.984 1.673 2.252 1.673 3.805 0 1.438-.392 2.595-1.177 3.471-.785.875-1.797 1.462-3.036 1.759l4.486 7.436Zm103.868-10.211a.96.96 0 0 0-.359-.075v-.471h4.263v.471a.96.96 0 0 0-.36.075c-.123.049-.186.115-.186.198v9.915c0 .082.063.148.186.198a.978.978 0 0 0 .36.074v.471h-4.263v-.471a.977.977 0 0 0 .359-.074c.124-.05.186-.116.186-.198v-9.915c0-.083-.062-.149-.186-.198Zm-22.828 0a.96.96 0 0 0-.359-.075v-.471h4.263v.471a.96.96 0 0 0-.36.075c-.123.049-.186.115-.186.198v9.915c0 .082.063.148.186.198a.978.978 0 0 0 .36.074v.471h-4.263v-.471a.977.977 0 0 0 .359-.074c.124-.05.186-.116.186-.198v-9.915c0-.083-.062-.149-.186-.198Zm-17.76 10.311c.066.083.186.116.359.099.174-.016.269-.025.285-.025v.471h-5.601v-.471c.231 0 .363-.024.396-.074.033-.049.008-.115-.074-.198l-6.37-7.089-.818.842v6.247c0 .083.062.149.186.198.124.05.243.074.359.074v.471h-4.263v-.471a.957.957 0 0 0 .359-.074c.124-.049.186-.115.186-.198v-17.103c0-.083-.062-.149-.186-.198a.96.96 0 0 0-.359-.075v-.471h4.263v.471a.955.955 0 0 0-.359.075c-.124.049-.186.115-.186.198v6.494l6.494-6.544c.033-.033.05-.065.05-.099 0-.082-.133-.124-.397-.124v-.471h5.627v.471l-.471-.025a.67.67 0 0 0-.347.075l-7.808 7.907 8.675 9.617Zm-110.76-2.772-.354.354a8.477 8.477 0 0 0 5.265 2.213v-.506a7.964 7.964 0 0 1-4.911-2.061Zm5.838 2.061v.506a8.472 8.472 0 0 0 5.265-2.213l-.353-.354a7.966 7.966 0 0 1-4.912 2.061Zm114.056-1.507c.537-.306.954-.71 1.252-1.215a3.138 3.138 0 0 0 .446-1.623c0-.991-.327-1.81-.979-2.454-.653-.645-1.5-.967-2.541-.967-1.008 0-1.838.314-2.491.942-.653.628-.979 1.43-.979 2.405 0 1.024.335 1.842 1.004 2.453.669.612 1.491.918 2.466.918.678 0 1.285-.153 1.822-.459Zm23.659-.447c.611-.603.917-1.4.917-2.392 0-.991-.33-1.809-.991-2.454-.661-.644-1.504-.966-2.529-.966-.991 0-1.813.314-2.466.941-.653.629-.979 1.438-.979 2.43 0 1.024.33 1.838.992 2.441.66.603 1.478.905 2.453.905 1.124 0 1.992-.302 2.603-.905Zm-69.811-.012c.669-.611 1.004-1.429 1.004-2.454 0-.958-.331-1.755-.992-2.392-.661-.636-1.495-.954-2.503-.954-1.025 0-1.868.322-2.528.967-.661.644-.992 1.462-.992 2.453 0 .579.153 1.12.459 1.624.305.504.731.909 1.276 1.215.546.306 1.14.458 1.785.458.991 0 1.822-.305 2.491-.917Zm115.331-.582c.603-.735.905-1.962.905-3.681v-4.263c0-1.305-.298-2.322-.893-3.049-.594-.727-1.487-1.091-2.676-1.091-1.075 0-1.913.352-2.516 1.054-.604.702-.905 1.747-.905 3.135v4.487c0 1.471.314 2.59.942 3.358.627.769 1.495 1.153 2.603 1.153 1.09 0 1.937-.368 2.54-1.103Zm-185.982-6.066 2.262 6.495 2.262-6.495h-4.524Zm8.305 5.89.355.355a8.464 8.464 0 0 0 2.116-5.259h-.504a7.964 7.964 0 0 1-1.967 4.904Zm-14.01-4.903h-.504a8.459 8.459 0 0 0 2.116 5.258l.355-.354a7.958 7.958 0 0 1-1.967-4.904Zm8.672 5.008 5.867-5.995h-3.57l-2.297 5.995Zm-7.261-5.995 5.838 5.995-2.282-5.995h-3.556Zm-3.32-8.719a.855.855 0 0 0-.644-.249.843.843 0 0 0-.609.303 14.36 14.36 0 0 0-3.238 7.801.843.843 0 0 0 .216.645c.161.178.392.28.632.28h4.537a8.985 8.985 0 0 1 2.359-5.527l-3.253-3.253Zm17.872 8.78h.506a8.465 8.465 0 0 0-2.205-5.158l-.354.354a7.963 7.963 0 0 1 2.053 4.804Zm5.566 0c.24 0 .47-.102.632-.28a.845.845 0 0 0 .216-.645 14.354 14.354 0 0 0-3.238-7.8.845.845 0 0 0-.609-.304.858.858 0 0 0-.644.249l-3.253 3.253a8.985 8.985 0 0 1 2.359 5.527h4.537Zm-19.462-4.805-.354-.354a8.472 8.472 0 0 0-2.204 5.158h.505a7.963 7.963 0 0 1 2.053-4.804Zm5.08 1.679h-3.435l-2.265 2.478h3.454l2.246-2.478Zm3.082 2.478-2.262-2.507-2.349 2.507h4.611Zm4.263 0-2.153-2.478h-3.596l2.246 2.478h3.503Zm25.018-5.258v4.858h4.065c1.025 0 1.793-.239 2.305-.718.512-.48.769-1.058.769-1.736 0-.66-.29-1.227-.868-1.698-.578-.471-1.289-.706-2.132-.706h-4.139Zm92.07 1.686c-.372-.364-.558-.818-.558-1.363 0-.512.186-.955.558-1.326a1.84 1.84 0 0 1 1.351-.558c.529 0 .975.186 1.338.558.364.371.546.814.546 1.326 0 .545-.182.999-.546 1.363a1.82 1.82 0 0 1-1.338.545c-.529 0-.979-.182-1.351-.545Zm22.828 0c-.372-.364-.558-.818-.558-1.363 0-.512.186-.955.558-1.326a1.84 1.84 0 0 1 1.351-.558c.529 0 .975.186 1.338.558.364.371.546.814.546 1.326 0 .545-.182.999-.546 1.363a1.82 1.82 0 0 1-1.338.545c-.529 0-.979-.182-1.351-.545Zm-141.16-1.232.355-.355a8.47 8.47 0 0 0-5.152-2.112v.506a7.96 7.96 0 0 1 4.797 1.961Zm-5.722-1.961v-.506a8.467 8.467 0 0 0-5.151 2.113l.354.354a7.966 7.966 0 0 1 4.797-1.961Zm9.705-2.022c.17-.17.26-.405.249-.645a.843.843 0 0 0-.303-.608 14.36 14.36 0 0 0-7.801-3.238.843.843 0 0 0-.645.216.854.854 0 0 0-.28.632v4.636a8.981 8.981 0 0 1 5.521 2.266l3.259-3.259Zm-9.705-3.643c0-.24-.102-.47-.28-.632a.846.846 0 0 0-.645-.216 14.354 14.354 0 0 0-7.8 3.238.84.84 0 0 0-.304.609c-.011.24.08.475.249.644l3.259 3.259a8.987 8.987 0 0 1 5.521-2.266v-4.636Z" style="fill-rule:nonzero" transform="matrix(1 0 0 1 -456.444 -682.843)"/></svg>